<?xml version="1.0" encoding="UTF-8" standalone="no"?>
<svg
   xmlns:dc="http://purl.org/dc/elements/1.1/"
   xmlns:cc="http://creativecommons.org/ns#"
   xmlns:rdf="http://www.w3.org/1999/02/22-rdf-syntax-ns#"
   xmlns:svg="http://www.w3.org/2000/svg"
   xmlns="http://www.w3.org/2000/svg"
   xmlns:sodipodi="http://sodipodi.sourceforge.net/DTD/sodipodi-0.dtd"
   xmlns:inkscape="http://www.inkscape.org/namespaces/inkscape"
   version="1.1"
   id="svg2"
   xml:space="preserve"
   width="569.17334"
   height="546.1333"
   viewBox="0 0 569.17334 546.1333"
   sodipodi:docname="2485382.eps"><metadata
     id="metadata8"><rdf:RDF><cc:Work
         rdf:about=""><dc:format>image/svg+xml</dc:format><dc:type
           rdf:resource="http://purl.org/dc/dcmitype/StillImage" /></cc:Work></rdf:RDF></metadata><defs
     id="defs6" /><sodipodi:namedview
     pagecolor="#ffffff"
     bordercolor="#666666"
     borderopacity="1"
     objecttolerance="10"
     gridtolerance="10"
     guidetolerance="10"
     inkscape:pageopacity="0"
     inkscape:pageshadow="2"
     inkscape:window-width="640"
     inkscape:window-height="480"
     id="namedview4" /><g
     id="g10"
     inkscape:groupmode="layer"
     inkscape:label="ink_ext_XXXXXX"
     transform="matrix(1.3333333,0,0,-1.3333333,0,546.13333)"><g
       id="g12"
       transform="scale(0.1)"><path
         d="m 1261.76,1681.51 c -41.11,-13.8 -91.78,-21.45 -147.75,11.68 -60.12,35.67 -99.57,102.97 -134.03,164.89 -45.156,81.22 -86.808,149.74 -165.429,192.55 -56.656,30.86 -116.988,48.11 -170.922,98.69 -62.75,58.85 -92.379,141.71 -102.078,210.71 -11.215,80.44 0.664,153.27 -26.543,238.99 -16.492,51.87 -45.043,97.73 -87.981,137.84 -31.097,28.99 -64.48,53.05 -95.382,82.3 -99.754,94.33 -131.524,226.31 -79.961,286.61 32.531,70.96 123.687,85.29 224.574,14.77 80.707,-56.41 125.578,-145.9 183.121,-226.41 62.207,-87.11 129.289,-122.15 208.125,-152.95 53.637,-20.92 110.719,-41.23 162.616,-86.89 52.18,-45.86 84.07,-107.72 109.95,-167.73 31.7,-73.31 59.56,-159.18 126.54,-216.47 35.92,-30.67 75.33,-48.75 110.98,-80.93 24.23,-21.95 45.57,-48.29 63.28,-76.27 95.47,-150.73 56.94,-282.87 -18.38,-347.3 -44.97,-38.55 -102.66,-64.59 -160.73,-84.08"
         style="fill:#c2d7f1;fill-opacity:1;fill-rule:nonzero;stroke:none"
         id="path14" /><path
         d="m 410.563,3011.63 c 85.218,-122.41 171,-244.44 257.335,-366.07 -54.171,28.29 -108.347,56.57 -162.523,84.85 -10.395,5.43 -17.227,-11.46 -6.918,-16.84 l 187.215,-97.74 c 1.512,-0.79 2.906,-1 4.226,-0.95 72.52,-101.99 145.532,-203.63 218.821,-305.07 -97.422,32.04 -194.836,64.08 -292.258,96.12 -11.09,3.65 -18.063,-13.18 -6.918,-16.85 103.973,-34.19 207.953,-68.39 311.926,-102.59 1.582,-0.52 3.043,-0.54 4.414,-0.32 67.972,-93.97 136.537,-187.5 205.147,-281 -79.99,29.71 -159.979,59.42 -239.971,89.12 -10.981,4.09 -17.918,-12.75 -6.922,-16.84 88.781,-32.97 177.563,-65.95 266.343,-98.92 46.01,-62.6 92.17,-125.1 138.43,-187.51 l -240.84,92.17 c -10.95,4.19 -17.88,-12.66 -6.92,-16.85 81.19,-31.07 162.38,-62.14 243.57,-93.21 5.47,-2.1 9.68,1.15 11.38,5.36 0.83,-0.35 1.71,-0.64 2.64,-0.76 53.34,-71.91 106.86,-143.69 160.67,-215.23 7.06,-9.39 21.38,1.85 14.33,11.23 -54.43,72.37 -108.56,144.97 -162.51,217.69 19.5,85.24 33.8,171.17 42.78,258.18 1.2,11.64 -16.88,13.86 -18.08,2.18 -8.37,-81.13 -21.54,-161.33 -39.06,-240.91 -43.09,58.14 -86.11,116.33 -128.97,174.64 0.12,3.28 -1.46,6.52 -5.51,8.02 l -0.47,0.17 c -2.02,2.74 -4.01,5.51 -6.02,8.25 9.82,87.82 19.65,175.64 29.47,263.46 1.3,11.64 -16.77,13.86 -18.08,2.19 -9.09,-81.29 -18.18,-162.59 -27.28,-243.88 -67.86,92.43 -135.63,184.92 -202.826,277.83 9.617,94.91 19.238,189.81 28.855,284.72 1.176,11.65 -16.894,13.88 -18.074,2.19 -8.945,-88.26 -17.891,-176.52 -26.836,-264.79 -74.5,103.12 -148.719,206.44 -222.418,310.14 0.965,1.18 1.742,2.59 1.969,4.5 l 16.078,136.55 c 1.371,11.64 -16.699,13.85 -18.078,2.19 -4.825,-41 -9.653,-82 -14.481,-123 -86.996,122.54 -173.441,245.47 -259.308,368.81 -6.707,9.64 -21.008,-1.63 -14.328,-11.23"
         style="fill:#fde5e6;fill-opacity:1;fill-rule:nonzero;stroke:none"
         id="path16" /><path
         d="m 915.117,1330.18 c -95.008,28.83 -191.496,57.91 -291.609,62.1 -100.121,4.19 -206.102,-19.66 -277.582,-83.85 -71.485,-64.19 -97.442,-173.77 -42.258,-249.8 65.586,-90.36 204.359,-99.841 323.426,-103.271 166.558,-4.8 353.914,-25.39 455.436,-145.418 52.01,-61.5 73.59,-141.742 130.26,-199.73 96.93,-99.172 267.07,-104.41 408.46,-70.68 141.39,33.719 274.26,98.41 419.3,114.461 161.81,17.906 322.78,-26.203 483.98,-47.41 554.33,-72.941 1116.06,82.598 1455.47,489.568 49.95,59.89 96.62,137.25 65.18,206.55 -40.02,88.24 -142.23,151.91 -247.04,146.34 -256.33,-13.6 -514.1,-21.12 -769.42,2.51 -228.39,21.14 -451.28,75.53 -677.94,108.46 -537.32,78.06 -920.83,-67.2 -1435.663,-229.83"
         style="fill:#c2d7f1;fill-opacity:1;fill-rule:nonzero;stroke:none"
         id="path18" /><path
         d="m 3498.2,1764.83 c 25.16,60.09 50.82,123 46.06,187.97 -4.41,60.2 -5.35,127.29 -23.86,184.75 -18.53,57.49 -24.29,118.54 -20.7,178.83 11.28,189.03 91.16,181.21 121.26,171.78 29.58,-9.28 47.31,-37.14 56.43,-85.14 7.33,-38.59 8.71,-224.39 63.64,-188.28 63.59,41.8 31.79,231.07 32.72,295.92 1.41,97 24.41,204 86.53,280.9 30.61,37.9 79.35,69.75 125.87,55.24 27.83,-8.67 48.61,-32.47 62.15,-58.32 40.74,-77.83 25.48,-167.64 5.08,-248.96 -8.53,-34 -95.37,-198.54 -7,-170.18 21.11,6.78 179.69,176.09 220.01,32.32 14.2,-50.62 -35.3,-112.47 -116.65,-192.84 -50.81,-50.2 -245.77,-190.87 -226.28,-246.29 8.4,-23.87 32.32,-17.18 57.05,-10.49 32.67,8.85 66.74,17.69 68.2,-44.03 1.42,-60.73 -70.12,-115.7 -119.67,-146.36 -23.58,-14.59 -49.98,-24.44 -72.56,-40.53 -26.78,-19.09 -56.84,-59.93 -29.36,-90.95 12.01,-13.54 31.9,-18.15 43.45,-32.09 11.73,-14.15 11.97,-35.27 4.78,-52.18 -7.2,-16.92 -20.66,-30.33 -34.66,-42.22 -89.83,-76.25 -212.66,-105.35 -330.37,-100.37 -117.71,4.99 -231.83,41.18 -341.98,82.99 l 329.86,278.53"
         style="fill:#96b0e1;fill-opacity:1;fill-rule:nonzero;stroke:none"
         id="path20" /><path
         d="m 3603.81,1647.15 c -1,0 -2.02,0.3 -2.9,0.92 -2.25,1.6 -2.77,4.73 -1.17,6.98 16.22,22.78 31.66,46.05 46.38,69.75 -0.52,-1.06 -0.68,-2.31 -0.34,-3.54 0.6,-2.22 2.62,-3.69 4.82,-3.69 0.43,0 0.88,0.06 1.32,0.18 0.63,0.17 1.25,0.35 1.88,0.52 -14.58,-23.43 -29.87,-46.47 -45.91,-69.02 -0.98,-1.37 -2.52,-2.1 -4.08,-2.1 m 42.81,78.46 c 37.6,60.61 70.42,123.85 99.06,187.82 0.76,-0.82 1.52,-1.63 2.29,-2.43 0.98,-1.02 2.29,-1.53 3.61,-1.53 1.24,0 2.49,0.46 3.46,1.4 1.99,1.91 2.05,5.08 0.14,7.07 -1.71,1.77 -3.41,3.59 -5.08,5.44 27.23,61.83 50.59,124.26 70.63,185.58 -0.2,-0.84 -0.2,-1.74 0.07,-2.62 0.64,-2.18 2.63,-3.58 4.79,-3.58 0.47,0 0.95,0.07 1.43,0.21 0.84,0.25 1.69,0.51 2.54,0.77 -40.83,-124.45 -95.31,-253.36 -168.06,-372.96 -4.02,-1.13 -8.09,-2.26 -12.22,-3.38 -1.1,-0.3 -2.01,-0.95 -2.66,-1.79 m 174.34,384.05 c 98.16,300.68 116.42,574.69 118.86,622.09 0.25,4.78 0.34,7.22 0.34,7.23 v 0 c 0.1,2.69 2.32,4.81 5,4.81 0.06,0 0.12,0 0.19,0 2.76,-0.11 4.91,-2.43 4.81,-5.18 -0.07,-0.28 -10.91,-294.31 -116.81,-623.19 -3.06,-1 -6.13,-1.96 -9.18,-2.87 -1.51,-0.45 -2.65,-1.54 -3.21,-2.89"
         style="fill:#afc3e9;fill-opacity:1;fill-rule:nonzero;stroke:none"
         id="path22" /><path
         d="m 3825.59,2102.76 c -2.16,0 -4.15,1.4 -4.79,3.58 -0.27,0.88 -0.27,1.78 -0.07,2.62 0.06,0.23 0.14,0.47 0.23,0.7 0.56,1.35 1.7,2.44 3.21,2.89 3.05,0.91 6.12,1.87 9.18,2.87 70.44,23.05 143.61,70.79 204.12,117.98 63.16,49.23 112.62,97.82 131.41,116.93 5.38,5.46 8.22,8.48 8.22,8.49 0.99,1.04 2.32,1.57 3.65,1.57 1.23,0 2.46,-0.45 3.42,-1.36 2.01,-1.89 2.11,-5.05 0.22,-7.06 -0.1,-0.1 -46.57,-49.51 -114.39,-105.32 -67.18,-55.24 -155.17,-116.81 -240.44,-142.91 -0.85,-0.26 -1.7,-0.52 -2.54,-0.77 -0.48,-0.14 -0.96,-0.21 -1.43,-0.21"
         style="fill:#afc3e9;fill-opacity:1;fill-rule:nonzero;stroke:none"
         id="path24" /><path
         d="m 3751.58,1909.47 c -1.32,0 -2.63,0.51 -3.61,1.53 -0.77,0.8 -1.53,1.61 -2.29,2.43 -56.25,60.17 -92.2,157.37 -115.05,252.19 -23.11,96.12 -32.53,189.77 -34.58,239.86 -0.11,2.76 2.04,5.09 4.8,5.2 0.06,0 0.13,0.01 0.2,0.01 2.67,0 4.89,-2.11 4.99,-4.8 2.02,-49.4 11.4,-142.66 34.31,-237.93 22.15,-92.33 57.23,-186.56 109.75,-244.58 1.67,-1.85 3.37,-3.67 5.08,-5.44 1.91,-1.99 1.85,-5.16 -0.14,-7.07 -0.97,-0.94 -2.22,-1.4 -3.46,-1.4"
         style="fill:#afc3e9;fill-opacity:1;fill-rule:nonzero;stroke:none"
         id="path26" /><path
         d="m 3650.6,1717.57 c -2.2,0 -4.22,1.47 -4.82,3.69 -0.34,1.23 -0.18,2.48 0.34,3.54 0.14,0.28 0.31,0.55 0.5,0.81 0.65,0.84 1.56,1.49 2.66,1.79 4.13,1.12 8.2,2.25 12.22,3.38 233.41,65.64 304.98,143.79 308.64,147.91 l 0.15,0.17 c 0.99,1.16 2.39,1.76 3.81,1.76 1.14,0 2.29,-0.39 3.23,-1.19 2.11,-1.79 2.36,-4.94 0.58,-7.05 -0.72,-0.86 -73.13,-85.37 -324.11,-154.11 -0.63,-0.17 -1.25,-0.35 -1.88,-0.52 -0.44,-0.12 -0.89,-0.18 -1.32,-0.18"
         style="fill:#afc3e9;fill-opacity:1;fill-rule:nonzero;stroke:none"
         id="path28" /><path
         d="m 3701.4,1550.7 c -41.4,0 -89.36,6 -137.37,25.07 -2.57,1.02 -3.82,3.93 -2.8,6.49 0.78,1.96 2.66,3.16 4.64,3.16 0.62,0 1.24,-0.12 1.85,-0.36 46.55,-18.49 93.24,-24.36 133.68,-24.36 0.02,0 0.03,0 0.05,0 60.66,0 107.21,13.23 117.67,16.48 1.5,0.46 2.21,0.71 2.21,0.71 h 0.01 c 0.53,0.18 1.07,0.26 1.6,0.26 2.09,0 4.03,-1.31 4.74,-3.39 0.89,-2.62 -0.51,-5.45 -3.13,-6.34 -0.33,-0.11 -52.13,-17.71 -123.15,-17.72"
         style="fill:#afc3e9;fill-opacity:1;fill-rule:nonzero;stroke:none"
         id="path30" /><path
         d="m 3338.42,1444.85 c 0,0 -429.38,0 -533.47,0 -104.11,0 -87.21,123.45 202.39,68.52 -71.06,32.48 -71.48,75.96 -65.44,87.56 5.54,10.67 25.82,17.51 37.79,16.49 36.84,-3.17 64.8,-25.74 97.07,-43.77 -58.39,37.97 -94.68,107.67 -92.31,177.28 0.64,19.14 4.78,39.65 18.86,52.65 15.81,14.6 41.65,24.32 62.76,20.13 39.08,-7.77 110.92,-73.01 139.55,-100.71 -145.92,134.21 -201.48,345.72 -108.06,393.96 157.27,81.22 276.08,-378.9 276.08,-378.9 0,0 -78.24,345.76 52.98,347.79 131.21,2.02 24.53,-401.67 24.53,-401.67 l -112.73,-239.33"
         style="fill:#96b0e1;fill-opacity:1;fill-rule:nonzero;stroke:none"
         id="path32" /><path
         d="m 726.805,1550.71 c -23.731,56.67 -47.93,116.01 -43.442,177.29 4.157,56.77 5.043,120.04 22.512,174.23 17.469,54.22 22.902,111.81 19.516,168.68 -10.633,178.28 -85.977,170.91 -114.371,162.01 -27.895,-8.75 -44.614,-35.03 -53.215,-80.3 -6.914,-36.4 -8.211,-211.64 -60.032,-177.57 -59.968,39.42 -29.976,217.93 -30.859,279.09 -1.324,91.49 -23.019,192.4 -81.601,264.93 -28.872,35.74 -74.844,65.79 -118.711,52.1 -26.262,-8.18 -45.856,-30.63 -58.618,-55 -38.421,-73.41 -24.043,-158.12 -4.8,-234.81 8.046,-32.07 89.949,-187.26 6.601,-160.5 -19.902,6.38 -169.4686,166.07 -207.49984,30.47 -13.39846,-47.74 33.28904,-106.08 110.02384,-181.88 47.914,-47.33 231.796,-180.01 213.414,-232.28 -7.918,-22.52 -30.485,-16.21 -53.805,-9.89 -30.82,8.34 -62.957,16.68 -64.324,-41.53 -1.344,-57.28 66.133,-109.12 112.871,-138.05 22.23,-13.76 47.137,-23.04 68.43,-38.22 25.253,-18.01 53.605,-56.52 27.687,-85.77 -11.324,-12.77 -30.082,-17.13 -40.977,-30.27 -11.058,-13.35 -11.292,-33.28 -4.503,-49.22 6.789,-15.95 19.472,-28.61 32.687,-39.82 84.715,-71.91 200.563,-99.36 311.582,-94.66 111.024,4.7 218.652,38.83 322.539,78.27 l -311.105,262.7"
         style="fill:#96b0e1;fill-opacity:1;fill-rule:nonzero;stroke:none"
         id="path34" /><path
         d="m 469.109,1722.45 c -20.789,49.34 -39.031,98.86 -55.046,147.67 0.847,-0.27 1.695,-0.52 2.542,-0.77 0.477,-0.15 0.958,-0.21 1.43,-0.21 2.153,0 4.145,1.4 4.789,3.57 0.254,0.86 0.27,1.73 0.082,2.55 15.547,-47.56 33.223,-95.83 53.297,-143.9 l -7.094,-8.91 m -46.48,153.65 c -0.563,1.32 -1.688,2.39 -3.172,2.83 -3.059,0.91 -6.125,1.87 -9.195,2.88 -99.739,310.02 -109.934,587.02 -110.004,587.3 -0.106,2.76 2.051,5.08 4.808,5.19 0.067,0 0.129,0 0.192,0 2.676,0 4.89,-2.12 4.992,-4.81 0,-0.01 0.086,-2.31 0.324,-6.82 0.235,-4.5 0.621,-11.16 1.219,-19.81 1.195,-17.28 3.238,-42.46 6.625,-73.99 6.773,-63.07 18.918,-151.58 40.402,-253.19 15.739,-74.44 36.493,-155.91 63.809,-239.58"
         style="fill:#afc3e9;fill-opacity:1;fill-rule:nonzero;stroke:none"
         id="path36" /><path
         d="m 418.035,1869.14 c -0.472,0 -0.953,0.06 -1.43,0.21 -0.847,0.25 -1.695,0.5 -2.542,0.77 -80.45,24.66 -163.387,82.72 -226.731,134.8 -63.977,52.64 -107.8125,99.26 -107.9062,99.36 -1.8945,2.01 -1.7969,5.17 0.2148,7.06 0.9649,0.91 2.1953,1.36 3.4258,1.36 1.3281,0 2.6563,-0.53 3.6406,-1.57 0.0118,-0.01 2.6836,-2.86 7.75,-8 5.0625,-5.15 12.488,-12.57 21.898,-21.62 18.821,-18.11 45.594,-42.75 77.329,-68.87 60.988,-50.22 140.461,-105.8 216.578,-130.83 3.07,-1.01 6.136,-1.97 9.195,-2.88 1.484,-0.44 2.609,-1.51 3.172,-2.83 0.117,-0.27 0.211,-0.55 0.277,-0.84 0.188,-0.82 0.172,-1.69 -0.082,-2.55 -0.644,-2.17 -2.636,-3.57 -4.789,-3.57"
         style="fill:#afc3e9;fill-opacity:1;fill-rule:nonzero;stroke:none"
         id="path38" /><path
         d="m 568.031,1846.62 c 9.532,27.48 17.625,56.02 24.422,84.37 21.606,89.82 30.457,177.77 32.356,224.35 0.109,2.69 2.324,4.79 4.992,4.79 0.07,0 0.137,0 0.207,0 2.762,-0.11 4.906,-2.44 4.793,-5.2 -1.938,-47.27 -10.828,-135.6 -32.621,-226.28 -4.797,-19.9 -10.207,-39.92 -16.301,-59.63 l -17.848,-22.4"
         style="fill:#afc3e9;fill-opacity:1;fill-rule:nonzero;stroke:none"
         id="path40" /><path
         d="m 363.035,1589.31 c -65.359,35.19 -88.469,62.15 -88.887,62.65 -1.789,2.11 -1.531,5.26 0.571,7.05 0.941,0.8 2.094,1.19 3.238,1.19 1.414,0 2.82,-0.6 3.813,-1.76 l 0.132,-0.15 0.547,-0.6 c 0.504,-0.55 1.301,-1.39 2.406,-2.49 2.219,-2.21 5.688,-5.48 10.61,-9.62 9.848,-8.3 25.508,-20.12 48.586,-33.99 7.613,-4.57 16.031,-9.37 25.316,-14.33 l -6.332,-7.95"
         style="fill:#afc3e9;fill-opacity:1;fill-rule:nonzero;stroke:none"
         id="path42" /><path
         d="m 535.152,1348.48 c -67.019,0 -115.902,16.61 -116.234,16.72 v -0.01 c -2.613,0.89 -4.016,3.73 -3.125,6.35 0.707,2.08 2.648,3.39 4.734,3.39 0.532,0 1.075,-0.08 1.61,-0.27 0,0 0.672,-0.23 2.078,-0.66 1.41,-0.44 3.512,-1.07 6.246,-1.82 5.473,-1.52 13.484,-3.55 23.547,-5.58 20.125,-4.06 48.461,-8.13 81.144,-8.13 0.004,0 0.004,0 0.008,0 36.203,0 77.707,4.99 119.356,20.42 l 5.797,-8.51 c -43.817,-16.62 -87.383,-21.9 -125.161,-21.9"
         style="fill:#afc3e9;fill-opacity:1;fill-rule:nonzero;stroke:none"
         id="path44" /><path
         d="m 877.496,1248.92 c 0,0 404.984,0 503.154,0 98.18,0 82.25,116.43 -190.88,64.62 67,30.64 67.4,71.65 61.71,82.59 -5.22,10.06 -24.35,16.51 -35.64,15.55 -34.74,-2.98 -61.12,-24.28 -91.55,-41.29 55.07,35.82 89.29,101.55 87.07,167.2 -0.62,18.06 -4.52,37.41 -17.79,49.66 -14.92,13.77 -39.28,22.94 -59.2,18.99 -36.86,-7.32 -104.61,-68.86 -131.62,-94.98 137.62,126.59 190.03,326.06 101.92,371.56 -148.326,76.61 -260.377,-357.35 -260.377,-357.35 0,0 73.777,326.09 -49.973,328 -123.75,1.92 -23.132,-378.82 -23.132,-378.82"
         style="fill:#96b0e1;fill-opacity:1;fill-rule:nonzero;stroke:none"
         id="path46" /><path
         d="m 1927.01,2314.17 c -25.91,61.88 -52.32,126.65 -47.43,193.55 4.54,61.98 5.51,131.06 24.57,190.22 19.08,59.19 25.01,122.06 21.31,184.14 -11.61,194.63 -93.86,186.58 -124.86,176.86 -30.45,-9.55 -48.71,-38.23 -58.1,-87.65 -7.54,-39.75 -8.96,-231.05 -65.53,-193.87 -65.47,43.04 -32.73,237.92 -33.69,304.69 -1.44,99.89 -25.13,210.05 -89.08,289.23 -31.52,39.02 -81.71,71.82 -129.6,56.89 -28.67,-8.94 -50.06,-33.44 -63.99,-60.05 -41.95,-80.14 -26.26,-172.62 -5.24,-256.35 8.78,-35 98.19,-204.43 7.2,-175.22 -21.73,6.98 -185.01,181.31 -226.53,33.27 -14.62,-52.12 36.35,-115.81 120.12,-198.56 52.31,-51.68 253.05,-196.52 232.98,-253.58 -8.64,-24.58 -33.28,-17.69 -58.74,-10.8 -33.64,9.1 -68.73,18.21 -70.22,-45.34 -1.46,-62.53 72.19,-119.13 123.22,-150.7 24.28,-15.02 51.46,-25.16 74.7,-41.73 27.58,-19.66 58.52,-61.71 30.23,-93.64 -12.35,-13.95 -32.84,-18.7 -44.73,-33.04 -12.08,-14.57 -12.33,-36.33 -4.92,-53.74 7.41,-17.41 21.26,-31.22 35.69,-43.47 92.49,-78.51 218.95,-108.48 340.16,-103.34 121.2,5.13 238.7,42.39 352.12,85.44 l -339.64,286.79"
         style="fill:#96b0e1;fill-opacity:1;fill-rule:nonzero;stroke:none"
         id="path48" /><path
         d="m 1641.24,2513.48 c -20.72,50.07 -39.05,100.26 -55.29,149.76 0.84,-0.26 1.69,-0.51 2.54,-0.76 0.48,-0.15 0.96,-0.21 1.43,-0.21 2.15,0 4.14,1.4 4.79,3.57 0.25,0.85 0.27,1.72 0.08,2.53 16.49,-50.43 35.15,-101.54 56.29,-152.53 l -9.84,-2.36 m -46.73,155.77 c -0.57,1.31 -1.69,2.37 -3.17,2.81 -3.05,0.91 -6.12,1.87 -9.19,2.87 -109.12,338.72 -120.29,641.61 -120.36,641.89 -0.1,2.76 2.06,5.08 4.82,5.18 0.06,0 0.12,0 0.18,0 2.68,0 4.9,-2.11 5,-4.81 0,-0.01 0.09,-2.53 0.35,-7.44 0.26,-4.92 0.68,-12.2 1.33,-21.64 1.31,-18.87 3.54,-46.36 7.24,-80.8 7.39,-68.86 20.66,-165.5 44.12,-276.44 17.18,-81.29 39.84,-170.26 69.68,-261.62"
         style="fill:#afc3e9;fill-opacity:1;fill-rule:nonzero;stroke:none"
         id="path50" /><path
         d="m 1589.92,2662.27 c -0.47,0 -0.95,0.06 -1.43,0.21 -0.85,0.25 -1.7,0.5 -2.54,0.76 -87.79,26.86 -178.41,90.26 -247.6,147.15 -69.82,57.45 -117.66,108.33 -117.76,108.43 -1.89,2.01 -1.79,5.17 0.22,7.07 0.96,0.9 2.19,1.35 3.42,1.35 1.33,0 2.66,-0.52 3.64,-1.57 0.01,-0.01 2.94,-3.12 8.47,-8.74 5.53,-5.63 13.64,-13.73 23.92,-23.61 20.55,-19.77 49.79,-46.69 84.45,-75.2 66.83,-55.03 153.98,-115.97 237.44,-143.19 3.07,-1 6.14,-1.96 9.19,-2.87 1.48,-0.44 2.6,-1.5 3.17,-2.81 0.12,-0.28 0.22,-0.58 0.28,-0.88 0.19,-0.81 0.17,-1.68 -0.08,-2.53 -0.65,-2.17 -2.64,-3.57 -4.79,-3.57"
         style="fill:#afc3e9;fill-opacity:1;fill-rule:nonzero;stroke:none"
         id="path52" /><path
         d="m 1705.23,2528.86 c 33.95,56.91 58.48,129.19 75.55,200.36 23.6,98.1 33.26,194.13 35.34,245.01 v 0 c 0.11,2.69 2.32,4.8 4.99,4.8 0.07,0 0.14,-0.01 0.21,-0.01 2.76,-0.11 4.9,-2.44 4.79,-5.2 -2.12,-51.57 -11.82,-147.98 -35.6,-246.94 -16.48,-68.38 -39.58,-137.96 -71.83,-194.79 l -13.45,-3.23"
         style="fill:#afc3e9;fill-opacity:1;fill-rule:nonzero;stroke:none"
         id="path54" /><path
         d="m 2091.52,1984.71 c 0,0 442.12,0 549.3,0 107.17,0 89.78,127.1 -208.39,70.55 73.15,33.44 73.58,78.21 67.37,90.16 -5.7,10.97 -26.59,18.03 -38.91,16.98 -37.93,-3.26 -66.73,-26.51 -99.95,-45.08 60.12,39.1 97.48,110.86 95.05,182.54 -0.66,19.71 -4.92,40.84 -19.41,54.21 -16.29,15.03 -42.89,25.04 -64.63,20.72 -40.24,-7.98 -114.21,-75.16 -143.69,-103.69 150.24,138.2 207.45,355.97 111.27,405.65 -161.94,83.62 -284.26,-390.13 -284.26,-390.13 0,0 80.54,355.99 -54.56,358.08 -135.1,2.09 -25.25,-413.57 -25.25,-413.57 l 116.06,-246.42"
         style="fill:#96b0e1;fill-opacity:1;fill-rule:nonzero;stroke:none"
         id="path56" /><path
         d="m 684.383,3098.86 c 9.648,0 9.668,15 0,15 -9.653,0 -9.668,-15 0,-15"
         style="fill:#5779c5;fill-opacity:1;fill-rule:nonzero;stroke:none"
         id="path58" /><path
         d="m 752.328,3148.27 c 9.652,0 9.668,15 0,15 -9.648,0 -9.668,-15 0,-15"
         style="fill:#5779c5;fill-opacity:1;fill-rule:nonzero;stroke:none"
         id="path60" /><path
         d="m 2006.27,2647.93 c 9.66,0 9.67,15 0,15 -9.65,0 -9.66,-15 0,-15"
         style="fill:#5779c5;fill-opacity:1;fill-rule:nonzero;stroke:none"
         id="path62" /><path
         d="m 647.32,3210.05 c 9.653,0 9.668,15 0,15 -9.648,0 -9.668,-15 0,-15"
         style="fill:#5779c5;fill-opacity:1;fill-rule:nonzero;stroke:none"
         id="path64" /><path
         d="m 3575.25,1801.68 c 9.65,0 9.67,15 0,15 -9.65,0 -9.67,-15 0,-15"
         style="fill:#5779c5;fill-opacity:1;fill-rule:nonzero;stroke:none"
         id="path66" /><path
         d="m 3643.2,1733.73 c 9.65,0 9.67,15 0,15 -9.66,0 -9.67,-15 0,-15"
         style="fill:#5779c5;fill-opacity:1;fill-rule:nonzero;stroke:none"
         id="path68" /><path
         d="m 3494.95,1671.96 c 9.64,0 9.66,15 0,15 -9.65,0 -9.67,-15 0,-15"
         style="fill:#5779c5;fill-opacity:1;fill-rule:nonzero;stroke:none"
         id="path70" /><path
         d="m 3309.63,3549.79 c 9.65,0 9.67,15 0,15 -9.64,0 -9.66,-15 0,-15"
         style="fill:#5779c5;fill-opacity:1;fill-rule:nonzero;stroke:none"
         id="path72" /><path
         d="m 3414.64,3525.07 c 9.65,0 9.67,15 0,15 -9.65,0 -9.66,-15 0,-15"
         style="fill:#5779c5;fill-opacity:1;fill-rule:nonzero;stroke:none"
         id="path74" /><path
         d="m 3315.82,3444.77 c 9.64,0 9.66,15 0,15 -9.66,0 -9.67,-15 0,-15"
         style="fill:#5779c5;fill-opacity:1;fill-rule:nonzero;stroke:none"
         id="path76" /><path
         d="m 2154.53,2987.67 c 9.64,0 9.66,15 0,15 -9.66,0 -9.67,-15 0,-15"
         style="fill:#5779c5;fill-opacity:1;fill-rule:nonzero;stroke:none"
         id="path78" /><path
         d="m 2173.05,3086.5 c 9.66,0 9.67,15 0,15 -9.65,0 -9.66,-15 0,-15"
         style="fill:#5779c5;fill-opacity:1;fill-rule:nonzero;stroke:none"
         id="path80" /><path
         d="m 2247.18,2981.49 c 9.65,0 9.67,15 0,15 -9.66,0 -9.67,-15 0,-15"
         style="fill:#5779c5;fill-opacity:1;fill-rule:nonzero;stroke:none"
         id="path82" /><path
         d="m 2123.64,1288.98 c 9.65,0 9.67,15 0,15 -9.65,0 -9.67,-15 0,-15"
         style="fill:#5779c5;fill-opacity:1;fill-rule:nonzero;stroke:none"
         id="path84" /><path
         d="m 2179.23,1208.68 c 9.65,0 9.67,15 0,15 -9.65,0 -9.67,-15 0,-15"
         style="fill:#5779c5;fill-opacity:1;fill-rule:nonzero;stroke:none"
         id="path86" /><path
         d="m 3686.43,1177.79 c 9.66,0 9.67,15 0,15 -9.65,0 -9.67,-15 0,-15"
         style="fill:#5779c5;fill-opacity:1;fill-rule:nonzero;stroke:none"
         id="path88" /><path
         d="m 3482.59,2820.89 c 9.65,0 9.67,15 0,15 -9.65,0 -9.67,-15 0,-15"
         style="fill:#5779c5;fill-opacity:1;fill-rule:nonzero;stroke:none"
         id="path90" /><path
         d="m 807.926,3426.24 c 9.652,0 9.668,15 0,15 -9.656,0 -9.668,-15 0,-15"
         style="fill:#5779c5;fill-opacity:1;fill-rule:nonzero;stroke:none"
         id="path92" /><path
         d="m 1573.88,3852.46 c 9.65,0 9.67,15 0,15 -9.65,0 -9.67,-15 0,-15"
         style="fill:#5779c5;fill-opacity:1;fill-rule:nonzero;stroke:none"
         id="path94" /><path
         d="m 2123.64,4081.01 c 9.65,0 9.67,15 0,15 -9.65,0 -9.67,-15 0,-15"
         style="fill:#5779c5;fill-opacity:1;fill-rule:nonzero;stroke:none"
         id="path96" /><path
         d="m 2321.3,3932.76 c 9.65,0 9.67,15 0,15 -9.65,0 -9.66,-15 0,-15"
         style="fill:#5779c5;fill-opacity:1;fill-rule:nonzero;stroke:none"
         id="path98" /><path
         d="m 709.09,1251.91 c 9.656,0 9.668,15 0,15 -9.652,0 -9.668,-15 0,-15"
         style="fill:#5779c5;fill-opacity:1;fill-rule:nonzero;stroke:none"
         id="path100" /><path
         d="m 424.945,1461.94 c 9.653,0 9.668,15 0,15 -9.652,0 -9.668,-15 0,-15"
         style="fill:#5779c5;fill-opacity:1;fill-rule:nonzero;stroke:none"
         id="path102" /><path
         d="m 449.652,1418.7 c 9.653,0 9.668,15 0,15 -9.648,0 -9.668,-15 0,-15"
         style="fill:#5779c5;fill-opacity:1;fill-rule:nonzero;stroke:none"
         id="path104" /><path
         d="m 400.238,1387.81 c 9.653,0 9.668,15 0,15 -9.652,0 -9.668,-15 0,-15"
         style="fill:#5779c5;fill-opacity:1;fill-rule:nonzero;stroke:none"
         id="path106" /><path
         d="m 3272.57,881.301 c 9.65,0 9.67,15 0,15 -9.65,0 -9.67,-15 0,-15"
         style="fill:#5779c5;fill-opacity:1;fill-rule:nonzero;stroke:none"
         id="path108" /><path
         d="m 684.383,1925.21 c 9.648,0 9.668,15 0,15 -9.653,0 -9.668,-15 0,-15"
         style="fill:#5779c5;fill-opacity:1;fill-rule:nonzero;stroke:none"
         id="path110" /><path
         d="m 579.375,733.039 c 9.648,0 9.668,15 0,15 -9.652,0 -9.668,-15 0,-15"
         style="fill:#5779c5;fill-opacity:1;fill-rule:nonzero;stroke:none"
         id="path112" /><path
         d="m 1975.39,813.352 c 9.65,0 9.67,15 0,15 -9.65,0 -9.67,-15 0,-15"
         style="fill:#5779c5;fill-opacity:1;fill-rule:nonzero;stroke:none"
         id="path114" /><path
         d="m 3853.22,733.039 c 9.65,0 9.67,15 0,15 -9.66,0 -9.67,-15 0,-15"
         style="fill:#5779c5;fill-opacity:1;fill-rule:nonzero;stroke:none"
         id="path116" /><path
         d="m 2315.13,4062.48 c 9.65,0 9.67,15 0,15 -9.66,0 -9.67,-15 0,-15"
         style="fill:#5779c5;fill-opacity:1;fill-rule:nonzero;stroke:none"
         id="path118" /><path
         d="m 2852.53,3191.51 c 9.65,0 9.67,15 0,15 -9.65,0 -9.66,-15 0,-15"
         style="fill:#5779c5;fill-opacity:1;fill-rule:nonzero;stroke:none"
         id="path120" /><path
         d="m 3037.85,3321.23 c 9.64,0 9.66,15 0,15 -9.66,0 -9.67,-15 0,-15"
         style="fill:#5779c5;fill-opacity:1;fill-rule:nonzero;stroke:none"
         id="path122" /><path
         d="m 248.902,2845.6 c 9.653,0 9.668,15 0,15 -9.656,0 -9.668,-15 0,-15"
         style="fill:#5779c5;fill-opacity:1;fill-rule:nonzero;stroke:none"
         id="path124" /><path
         d="m 3914.99,3018.56 c 9.64,0 9.66,15 0,15 -9.65,0 -9.67,-15 0,-15"
         style="fill:#5779c5;fill-opacity:1;fill-rule:nonzero;stroke:none"
         id="path126" /><path
         d="m 2176.46,3225.82 c 455.96,-264.72 775.01,-736.35 851.52,-1257.87 2.35,-16.01 -31.1,1.23 -34.13,2.33 -515.85,187.88 -856.5,695.1 -835.49,1243.6 0.32,8.63 9.25,17.13 18.1,11.94"
         style="fill:#c2d7f1;fill-opacity:1;fill-rule:nonzero;stroke:none"
         id="path128" /><path
         d="m 2221.51,3077.84 c 206.55,-289.71 413.1,-579.41 619.66,-869.12 -94.77,55.96 -189.52,111.94 -284.29,167.91 -9.67,5.71 -19.52,-8.79 -9.79,-14.54 106.37,-62.83 212.74,-125.65 319.11,-188.48 63.56,-89.15 127.12,-178.31 190.69,-267.47 6.56,-9.2 19.8,2.3 13.31,11.42 -62.48,87.62 -124.95,175.24 -187.42,262.87 -0.16,2.26 -1.27,4.46 -3.91,6.01 l -0.66,0.39 c -214.47,300.81 -428.93,601.62 -643.39,902.43 -6.56,9.19 -19.81,-2.3 -13.31,-11.42"
         style="fill:#fde5e6;fill-opacity:1;fill-rule:nonzero;stroke:none"
         id="path130" /><path
         d="m 2345.14,2705.16 c -9.4,6.2 -19.22,-8.32 -9.78,-14.54 87.44,-57.71 174.87,-115.42 262.3,-173.13 9.41,-6.21 19.22,8.31 9.8,14.53 -87.45,57.71 -174.88,115.42 -262.32,173.14"
         style="fill:#fde5e6;fill-opacity:1;fill-rule:nonzero;stroke:none"
         id="path132" /><path
         d="m 2414.46,2993.68 c 8.68,-63.51 17.37,-127.02 26.06,-190.53 -74.58,56.12 -149.15,112.24 -223.73,168.36 -9.01,6.79 -18.78,-7.77 -9.78,-14.54 78.8,-59.3 157.58,-118.59 236.38,-177.89 8.61,-6.47 17.7,6.42 10.73,13.5 2.84,1.65 4.86,4.71 4.29,8.86 l -26.76,195.6 c -1.53,11.19 -18.72,7.79 -17.19,-3.36"
         style="fill:#fde5e6;fill-opacity:1;fill-rule:nonzero;stroke:none"
         id="path134" /><path
         d="m 2616.58,2767.6 -9.47,-219.46 c -0.48,-11.25 17.01,-12.43 17.49,-1.12 l 9.47,219.47 c 0.49,11.25 -17,12.42 -17.49,1.11"
         style="fill:#fde5e6;fill-opacity:1;fill-rule:nonzero;stroke:none"
         id="path136" /><path
         d="m 2825.11,2416.71 c 14.7,-65.82 20.93,-132.47 18.56,-199.89 -0.4,-11.25 17.09,-12.43 17.49,-1.11 2.43,68.88 -3.82,137.09 -18.85,204.36 -2.46,11.01 -19.67,7.68 -17.2,-3.36"
         style="fill:#fde5e6;fill-opacity:1;fill-rule:nonzero;stroke:none"
         id="path138" /><path
         d="m 2516.51,1868.08 c -35.32,44.47 -67.33,103.45 -51.47,187.13 17.12,89.92 82.4,168.48 143.27,238.51 79.89,91.8 145.68,173.62 163.35,289.5 12.75,83.51 7.08,165.48 45.34,254.44 44.49,103.48 133.31,176.9 213.93,219.59 94.04,49.66 189.02,67.5 282.42,139.2 56.52,43.42 100.26,99.01 130.51,169.76 21.84,51.21 36.58,103.03 58.82,154.11 71.69,164.87 220.02,262.81 317.25,226.2 101.86,-8.43 160.13,-114.27 118.28,-269.92 -33.5,-124.51 -123.67,-219.65 -197.15,-326.38 -79.52,-115.42 -92.78,-213.63 -95.56,-324.42 -1.85,-75.37 -1.42,-154.7 -34.51,-238.94 -33.2,-84.69 -95.16,-151.53 -157.51,-210.13 -76.13,-71.71 -169.43,-144.28 -210.14,-252.29 -21.74,-57.9 -26.43,-114.48 -50.17,-172.71 -16.22,-39.6 -39.14,-77.63 -65.7,-111.91 -143.03,-184.71 -322.92,-196.18 -435.8,-132.17 -67.51,38.2 -125.28,97.62 -175.16,160.43"
         style="fill:#c2d7f1;fill-opacity:1;fill-rule:nonzero;stroke:none"
         id="path140" /><path
         d="m 3774.83,3508.95 c -112.75,-159.49 -224.75,-319.49 -336.02,-480.01 10.68,79.31 21.35,158.62 32.03,237.93 2.06,15.22 -21.79,16.09 -23.82,1.01 l -36.9,-274.07 c -0.3,-2.21 0.06,-4.03 0.7,-5.63 -93.25,-134.75 -185.85,-269.94 -278.07,-405.39 -3.98,134.23 -7.94,268.46 -11.92,402.69 -0.44,15.27 -24.27,16.36 -23.82,1.01 4.23,-143.27 8.47,-286.53 12.71,-429.79 0.07,-2.18 0.69,-3.98 1.56,-5.57 -85.39,-125.58 -169.99,-251.69 -254.53,-377.83 0.93,111.73 1.85,223.45 2.78,335.19 0.12,15.33 -23.7,16.37 -23.83,1.01 -1.03,-124.01 -2.05,-248.02 -3.09,-372.03 -56.57,-84.54 -112.95,-169.23 -169.17,-254.01 l 6.14,337.62 c 0.28,15.34 -23.55,16.37 -23.82,1.02 -2.07,-113.82 -4.14,-227.64 -6.21,-341.46 -0.15,-7.67 5.73,-11.39 11.67,-11.62 -0.06,-1.18 -0.02,-2.38 0.24,-3.58 -64.77,-97.73 -129.29,-195.61 -193.4,-293.76 -8.41,-12.87 11.82,-25.49 20.22,-12.64 64.84,99.28 130.1,198.28 195.6,297.13 113.63,13.96 225.83,34.67 336.94,62.39 14.87,3.71 9.56,26.95 -5.36,23.23 -103.63,-25.85 -208.24,-45.39 -314.04,-59.28 52.38,78.96 104.86,157.87 157.55,236.63 4.09,1.32 7.37,4.7 7.41,10.36 l 0.01,0.65 c 2.48,3.7 4.99,7.4 7.47,11.1 112.51,27.04 225.01,54.09 337.52,81.13 14.91,3.58 9.59,26.83 -5.35,23.23 -104.15,-25.04 -208.3,-50.07 -312.45,-75.1 83.56,124.74 167.24,249.4 251.69,373.55 121.14,30.46 242.27,60.92 363.42,91.38 14.86,3.73 9.55,26.98 -5.37,23.23 -112.65,-28.33 -225.32,-56.65 -337.97,-84.98 93.76,137.69 187.89,275.12 282.71,412.07 1.9,-0.66 3.98,-0.98 6.43,-0.41 l 175.29,41.06 c 14.93,3.5 9.61,26.74 -5.36,23.24 -52.63,-12.33 -105.27,-24.66 -157.89,-36.99 112.09,161.73 224.92,322.95 338.51,483.64 8.88,12.56 -11.37,25.15 -20.21,12.65"
         style="fill:#fde5e6;fill-opacity:1;fill-rule:nonzero;stroke:none"
         id="path142" /><path
         d="m 3608.97,1508.48 -1106.38,-644.539 -12.02,245.769 1107.19,627.97 11.21,-229.2"
         style="fill:#e0461f;fill-opacity:1;fill-rule:nonzero;stroke:none"
         id="path144" /><path
         d="M 2490.57,1109.71 1344.31,1463.79 2570.98,1999.83 3597.76,1737.68 2490.57,1109.71"
         style="fill:#f25734;fill-opacity:1;fill-rule:nonzero;stroke:none"
         id="path146" /><path
         d="m 1356.19,1220.79 1146.27,-354.079 -11.89,242.999 -1146.26,354.08 11.88,-243"
         style="fill:#ffffff;fill-opacity:1;fill-rule:nonzero;stroke:none"
         id="path148" /><path
         d="m 1345.52,1438.94 1146.26,-354.08 -1.21,24.85 -1146.26,354.08 1.21,-24.85"
         style="fill:#e0461f;fill-opacity:1;fill-rule:nonzero;stroke:none"
         id="path150" /><path
         d="m 1356.32,1218.02 1146.27,-354.071 -1.22,24.852 -1146.26,354.079 1.21,-24.86"
         style="fill:#e0461f;fill-opacity:1;fill-rule:nonzero;stroke:none"
         id="path152" /><path
         d="m 2420.41,913.141 80.96,-24.34 -9.59,196.059 -81.08,25.03 9.71,-196.749"
         style="fill:#a0331e;fill-opacity:1;fill-rule:nonzero;stroke:none"
         id="path154" /><path
         d="m 1456.1,1264.5 38.74,22.34 42.22,-46.69 -3.35,68.35 -81.08,25.03 3.47,-69.03"
         style="fill:#a0331e;fill-opacity:1;fill-rule:nonzero;stroke:none"
         id="path156" /><path
         d="m 3455.73,1820.11 -970.49,-564.36 -10.38,212.22 971.53,542.91 9.34,-190.77"
         style="fill:#ffffff;fill-opacity:1;fill-rule:nonzero;stroke:none"
         id="path158" /><path
         d="m 3447.3,1992.4 -971.37,-546.48 -1.07,22.05 971.53,542.91 0.91,-18.48"
         style="fill:#4378c5;fill-opacity:1;fill-rule:nonzero;stroke:none"
         id="path160" /><path
         d="m 3456.39,1806.4 -971.01,-553.63 -1.08,22.05 971.19,550.06 0.9,-18.48"
         style="fill:#4378c5;fill-opacity:1;fill-rule:nonzero;stroke:none"
         id="path162" /><path
         d="m 3457.41,1773.52 -40.54,10.35 2.37,1.35 38.77,-11.36 -0.6,-0.34"
         style="fill:#8691d1;fill-opacity:1;fill-rule:nonzero;stroke:none"
         id="path164" /><path
         d="m 2492.4,1216.98 -6.99,35.32 690.99,394.47 240.47,137.1 40.54,-10.35 -965.01,-556.54"
         style="fill:#f14d29;fill-opacity:1;fill-rule:nonzero;stroke:none"
         id="path166" /><path
         d="m 3176.4,1646.77 242.65,138.51 0.19,-0.06 -2.37,-1.35 -240.47,-137.1"
         style="fill:#396bbd;fill-opacity:1;fill-rule:nonzero;stroke:none"
         id="path168" /><path
         d="m 3446.39,2010.88 -902.1,225.74 -1063.47,-464.22 46.27,-62.34 -2.32,47.63 950.09,-289.72 971.53,542.91"
         style="fill:#6096d6;fill-opacity:1;fill-rule:nonzero;stroke:none"
         id="path170" /><path
         d="m 1519.05,1551.71 960.83,-296.81 c 2.64,-0.81 5.35,1.07 5.22,3.65 l -10,204.5 -940.06,290.39 c -24,7.41 -48.55,-9.77 -47.4,-33.18 l 6.77,-138.35 c 0.67,-13.82 10.47,-25.83 24.64,-30.2"
         style="fill:#ffffff;fill-opacity:1;fill-rule:nonzero;stroke:none"
         id="path172" /><path
         d="m 2333.76,1341.34 33.46,19.29 36.45,-40.31 -2.88,114.61 -70.02,21.61 2.99,-115.2"
         style="fill:#4378c5;fill-opacity:1;fill-rule:nonzero;stroke:none"
         id="path174" /><path
         d="m 1571.03,1536.61 -79.87,24.49 -10.34,211.3 79.88,-24.48 10.33,-211.31"
         style="fill:#4378c5;fill-opacity:1;fill-rule:nonzero;stroke:none"
         id="path176" /><path
         d="m 1508.29,1555.44 -17.13,5.66 -10.34,211.3 17.14,-5.65 10.33,-211.31"
         style="fill:#4378c5;fill-opacity:1;fill-rule:nonzero;stroke:none"
         id="path178" /><path
         d="m 1481.87,1750.94 994.03,-304.43 -1.04,21.46 -994.04,304.43 1.05,-21.46"
         style="fill:#4378c5;fill-opacity:1;fill-rule:nonzero;stroke:none"
         id="path180" /><path
         d="m 1490.87,1560.73 994.98,-307.65 -1.05,21.47 -995.08,306.44 1.15,-20.26"
         style="fill:#4378c5;fill-opacity:1;fill-rule:nonzero;stroke:none"
         id="path182" /><path
         d="m 2492.4,1216.98 -656.79,205.13 c 8.23,8.06 16.3,16.18 24.19,24.34 l 256.27,-79.17 368.63,-114.17 7.7,-36.13"
         style="fill:#f14d29;fill-opacity:1;fill-rule:nonzero;stroke:none"
         id="path184" /><path
         d="m 2116.07,1367.28 -256.27,79.17 c 0.05,0.04 0.11,0.11 0.15,0.16 l 256.12,-79.33"
         style="fill:#e2cbcd;fill-opacity:1;fill-rule:nonzero;stroke:none"
         id="path186" /><path
         d="m 2091.2,1918.01 c 34.29,-46.68 -4.84,-172.58 -100.43,-311.99 -87.98,-128.4 -223.94,-268.17 -394.57,-367.87 C 1240.25,1030.16 888.871,1038.9 822.188,1132.83 L 490.395,1619.74 1779.6,2373.03 c 0,0 309.09,-451.62 311.6,-455.02"
         style="fill:#2e2c2d;fill-opacity:1;fill-rule:nonzero;stroke:none"
         id="path188" /><path
         d="m 2063.89,2554.19 -704.12,-953.47 -37.66,55.26 706.14,950.51 35.64,-52.3"
         style="fill:#262324;fill-opacity:1;fill-rule:nonzero;stroke:none"
         id="path190" /><path
         d="m 2028.26,2606.49 -385.21,-518.51 -320.97,-432 -1056.049,-237.59 -44.898,-7.19 749.875,941.21 1057.252,254.08"
         style="fill:#2e2c2d;fill-opacity:1;fill-rule:nonzero;stroke:none"
         id="path192" /><path
         d="m 254.98,1361.48 1104.92,239.05 -37.79,55.45 -1101.008,-244.78 33.878,-49.72"
         style="fill:#262324;fill-opacity:1;fill-rule:nonzero;stroke:none"
         id="path194" /><path
         d="m 1622.04,2059.48 c 0.02,0.1 0.03,0.17 0.04,0.27 l 20.97,28.23 385.21,518.51 -0.01,-0.01 -385.2,-518.5 -21.01,-28.5"
         style="fill:#211b1d;fill-opacity:1;fill-rule:nonzero;stroke:none"
         id="path196" /><path
         d="m 1622.08,2059.75 c 39.64,260.61 -236.68,307.78 -441.69,307.78 -116.15,0 -209.382,-15.12 -209.382,-15.12 l 1057.252,254.08 -385.21,-518.51 -20.97,-28.23"
         style="fill:#292325;fill-opacity:1;fill-rule:nonzero;stroke:none"
         id="path198" /><path
         d="m 1990.77,1606.02 c 0,0 29.77,191.27 -50.66,309.29 -82.06,120.43 -184.47,134.45 -227.69,134.45 -13.1,0 -20.76,-1.29 -20.76,-1.29 l 160.01,217.54 c 0,0 237.02,-344.6 239.53,-348 8.24,-11.22 12.24,-27 12.24,-46.45 -0.01,-61.5 -40.04,-159.62 -112.67,-265.54"
         style="fill:#2d2527;fill-opacity:1;fill-rule:nonzero;stroke:none"
         id="path200" /><path
         d="m 1197.74,2068.49 c 3.89,-5.7 3.87,-13.25 0.6,-21.35 -5.58,-14.25 -21.09,-30.49 -42.69,-43.12 -33.98,-19.84 -70.21,-23.2 -80.96,-7.43 -7.9,11.6 0.16,30.21 18.46,47.11 6.61,6.16 14.61,12.08 23.64,17.35 33.97,19.86 70.2,23.21 80.95,7.44"
         style="fill:#f25734;fill-opacity:1;fill-rule:nonzero;stroke:none"
         id="path202" /><path
         d="m 1127.29,2039.31 -344.575,-454.3 8.926,-6.77 -7.688,8.15 c -1.203,-1.11 -71.336,-67.83 -126.25,-235.84 l 21.301,-6.96 c 26.859,82.15 57.25,139.04 80.762,175.27 11.757,18.11 21.797,31.06 28.824,39.41 3.512,4.17 6.269,7.2 8.113,9.15 0.922,0.97 1.617,1.67 2.059,2.11 l 0.476,0.47 0.094,0.09 -0.828,0.87 0.82,-0.87 h 0.008 l -0.828,0.87 0.82,-0.87 0.68,0.64 345.136,455.04 -17.85,13.54"
         style="fill:#f25734;fill-opacity:1;fill-rule:nonzero;stroke:none"
         id="path204" /><path
         d="m 1197.74,2068.49 c 3.89,-5.7 3.87,-13.25 0.6,-21.35 -45.87,24.66 -86.87,7.27 -105.19,-3.44 6.61,6.16 14.61,12.08 23.64,17.35 33.97,19.86 70.2,23.21 80.95,7.44"
         style="fill:#e0461f;fill-opacity:1;fill-rule:nonzero;stroke:none"
         id="path206" /><path
         d="m 765.395,1154.25 c 27.472,-112 28.523,-207.18 2.425,-212.648 -26.097,-5.481 -69.562,80.808 -97.039,192.808 -27.476,111.99 -28.527,207.18 -2.426,212.66 7.254,1.51 15.911,-4.05 25.047,-15.27 24,-29.22 52.153,-96.68 71.993,-177.55"
         style="fill:#f25734;fill-opacity:1;fill-rule:nonzero;stroke:none"
         id="path208" /><path
         d="m 765.395,1154.25 c 27.472,-112 28.523,-207.18 2.425,-212.648 1.336,248.008 -98.836,369.108 -98.836,369.108 l 24.418,21.09 c 24,-29.22 52.153,-96.68 71.993,-177.55"
         style="fill:#e0461f;fill-opacity:1;fill-rule:nonzero;stroke:none"
         id="path210" /><path
         d="m 717.457,1349.68 c 4.102,-16.73 -2.422,-33.38 -15.516,-43.89 -5.82,-4.68 -12.918,-8.17 -21.043,-9.86 -26.093,-5.48 -52.125,9.72 -58.058,33.91 -3.996,16.29 2.144,32.48 14.473,43.06 5.964,5.09 13.488,8.89 22.082,10.69 26.097,5.48 52.128,-9.73 58.062,-33.91"
         style="fill:#f25734;fill-opacity:1;fill-rule:nonzero;stroke:none"
         id="path212" /><path
         d="m 717.457,1349.68 c 4.102,-16.73 -2.422,-33.38 -15.516,-43.89 -0.824,1.67 -1.468,3.61 -2.05,5.64 -16.157,58.45 -53.235,61.58 -62.578,61.47 5.964,5.09 13.488,8.89 22.082,10.69 26.097,5.48 52.128,-9.73 58.062,-33.91"
         style="fill:#e0461f;fill-opacity:1;fill-rule:nonzero;stroke:none"
         id="path214" /><path
         d="m 3678.66,1443.41 -149.26,-45.74 -357.72,1167.6 149.26,45.72 357.72,-1167.58"
         style="fill:#f2c511;fill-opacity:1;fill-rule:nonzero;stroke:none"
         id="path216" /><path
         d="m 3591.59,1416.73 -16.59,-5.08 -359.11,1172.17 16.59,5.08 359.11,-1172.17"
         style="fill:#2e2c2d;fill-opacity:1;fill-rule:nonzero;stroke:none"
         id="path218" /><path
         d="m 3633.05,1429.43 -16.58,-5.08 -359.12,1172.17 16.58,5.08 359.12,-1172.17"
         style="fill:#2e2c2d;fill-opacity:1;fill-rule:nonzero;stroke:none"
         id="path220" /><path
         d="m 3686.37,1418.22 -152.81,-46.82 -9.11,29.77 152.8,46.82 9.12,-29.77"
         style="fill:#2e2c2d;fill-opacity:1;fill-rule:nonzero;stroke:none"
         id="path222" /><path
         d="m 3665.14,1354.12 -78.08,-23.93 c -20.64,-6.32 -42.49,5.29 -48.81,25.92 l -4.69,15.29 152.81,46.82 4.69,-15.3 c 6.32,-20.63 -5.28,-42.48 -25.92,-48.8"
         style="fill:#f25734;fill-opacity:1;fill-rule:nonzero;stroke:none"
         id="path224" /><path
         d="m 3320.97,2611.03 -149.26,-45.73 26.53,104.52 11.7,46.33 34.14,-32.29 76.89,-72.83"
         style="fill:#fddcb5;fill-opacity:1;fill-rule:nonzero;stroke:none"
         id="path226" /><path
         d="m 3244.08,2683.86 -45.84,-14.04 11.7,46.33 z"
         style="fill:#2e2c2d;fill-opacity:1;fill-rule:nonzero;stroke:none"
         id="path228" /><path
         d="m 981.914,3290.34 v 0 c 7.715,12.4 3.922,28.7 -8.473,36.41 l -154,95.84 c -12.39,7.71 -28.695,3.92 -36.406,-8.48 l -13.969,-22.44 -11.273,-18.11 -225.121,-361.73 c -7.715,-12.4 -3.922,-28.7 8.476,-36.41 l 534.872,-332.88 c 12.39,-7.71 28.69,-3.92 36.41,8.47 l 222.43,357.41 c 7.71,12.4 3.92,28.7 -8.47,36.41 l -335.999,209.1 c -12.395,7.72 -16.192,24.02 -8.477,36.41"
         style="fill:#d2ad13;fill-opacity:1;fill-rule:nonzero;stroke:none"
         id="path230" /><path
         d="m 1076.02,2642.54 -534.872,332.88 c -12.398,7.71 -16.191,24.01 -8.476,36.41 l 261.961,332.8 c 7.711,12.39 24.015,16.19 36.406,8.48 l 534.871,-332.88 c 12.4,-7.71 16.19,-24.02 8.48,-36.41 l -261.96,-332.81 c -7.72,-12.39 -24.02,-16.18 -36.41,-8.47"
         style="fill:#f2c511;fill-opacity:1;fill-rule:nonzero;stroke:none"
         id="path232" /><path
         d="m 2482.85,1865.31 c -66.5,0 -132.36,9.36 -184.14,48.84 -24.18,18.45 -44.97,46.4 -41.61,76.63 2.34,20.92 21.58,38.95 41.12,41.83 9.65,3.22 19.88,4.59 30.55,4.59 31.36,0 66.48,-11.88 101.49,-23.76 35.01,-11.89 69.9,-23.77 100.8,-23.77 3.78,0 7.49,0.18 11.14,0.55 42.56,4.39 78.35,32.36 117.15,50.4 24.96,11.6 52.98,18.97 80.37,18.97 20.98,0 41.58,-4.33 60.12,-14.4 42.71,-23.2 65.65,-83.73 37.7,-123.5 -24.25,-34.52 -72.19,-40.31 -114.29,-42.98 -54.52,-3.47 -109.02,-6.93 -163.52,-10.39 -25.21,-1.6 -51.08,-3.01 -76.88,-3.01"
         style="fill:#5889cf;fill-opacity:1;fill-rule:nonzero;stroke:none"
         id="path234" /><path
         d="m 2945.31,3108.32 c -15.05,-3.53 -68.87,-4.32 -118.99,-8.34 -9.82,27.98 -25.06,89.15 -46.77,166.75 -4.36,15.57 -26.27,43.74 -50.83,54.62 -15.24,6.75 -38.05,-5.68 -31.48,-35.27 3.7,-16.62 8.26,-39.87 27.23,-93.72 26.55,-75.4 45.76,-111.54 57.79,-129.45 1.48,-3.06 3.55,-5.87 6.12,-8.29 1.27,-1.46 2.79,-2.58 4.47,-3.44 4.53,-2.81 10,-4.51 16.23,-4.27 46.21,1.75 43.09,3.31 102.44,20.96 41.19,12.25 34.47,3.25 42.7,13.91 6.7,8.65 3.23,29.38 -8.91,26.54"
         style="fill:#e0461f;fill-opacity:1;fill-rule:nonzero;stroke:none"
         id="path236" /><path
         d="m 2560.54,3188.44 c 10.33,-38.46 14.73,-78.33 18.58,-117.91 2.84,-29.04 -0.45,-58.86 -6.32,-87.37 -3.56,-17.28 -8.18,-34.34 -13.3,-51.21 -1.95,-6.4 -18.29,-57.92 -19.27,-63.49 0,0 226.03,-15.45 239.24,-16.35 0.92,47.03 -42.41,197.94 0.25,290.82 29.53,64.32 -3.57,68.62 -22.35,125.13 -4.61,13.84 -38.03,41.62 -51.47,45.98 -7.15,2.33 -14.61,3.52 -22.03,4.64 -40.26,6.03 -124.64,28.89 -137.54,-28.11 -3.51,-15.54 2.51,-64.89 8.1,-81.66 2.23,-6.78 4.28,-13.6 6.11,-20.47"
         style="fill:#f25734;fill-opacity:1;fill-rule:nonzero;stroke:none"
         id="path238" /><path
         d="m 2769.12,2378.97 c 0.52,4.79 0.71,9.26 0.63,13.46 0.88,7.12 1.37,15.03 1.31,24.03 -0.26,36.23 4.28,190.81 6.74,283.16 5.34,80.71 1.67,152.49 1.67,152.49 l -239.24,16.35 c -9.42,-34.99 -13.28,-64.19 -14.42,-87.44 -6.48,-36.14 -42.25,-296.82 -51.92,-344.63 -0.5,-2.48 -0.88,-4.81 -1.27,-7.14 -51.91,-77.77 -90.94,-373.7 -100.64,-424.94 -1.29,-6.81 2.51,-6.34 6.6,-5.84 11.97,1.5 7.73,12.87 24.53,10.69 8.89,-1.15 10.61,-13.58 10.61,-13.58 23.27,68.62 101.17,310.02 136.68,382.43 5.36,10.92 8.1,20.79 9.17,29.75 28.56,79.69 73.89,216.99 86.68,276.25 6.81,-67.81 22.78,-220.96 36.66,-292.57 -31.37,-97.03 1.26,-301.47 -3.72,-417.73 13.72,19.59 25.69,23.75 31.15,22.96 8.84,-1.29 13.2,-8.66 13.2,-8.66 8.84,155.96 36.7,310.63 45.58,390.96"
         style="fill:#213766;fill-opacity:1;fill-rule:nonzero;stroke:none"
         id="path240" /><path
         d="m 2726.53,1988.21 c 2.36,-5.49 14.59,-18.67 32.14,-28 17.55,-9.31 55.66,-15.73 33.85,-21.39 -21.8,-5.67 -46.36,0.34 -58.8,3.23 -12.46,2.87 -24.64,3.99 -39.49,5.1 -19.56,1.45 -19.63,2.67 -15.49,24.58 5.7,30.14 40.13,34.25 47.79,16.48"
         style="fill:#181837;fill-opacity:1;fill-rule:nonzero;stroke:none"
         id="path242" /><path
         d="m 2413.53,2000.09 c 2.37,-5.49 3.48,-31.42 21.03,-40.75 17.53,-9.31 55.66,-15.73 33.85,-21.39 -21.8,-5.67 -46.35,0.34 -58.81,3.23 -12.45,2.88 -13.51,16.73 -28.36,17.84 -19.56,1.47 -19.62,2.69 -15.48,24.59 5.7,30.15 40.13,34.26 47.77,16.48"
         style="fill:#181837;fill-opacity:1;fill-rule:nonzero;stroke:none"
         id="path244" /><path
         d="m 2596.67,3218.62 c 3.33,-1.91 6.64,-3.86 9.97,-5.78 l -19.56,-60.27 c 2.87,19.63 6.14,41.78 9.59,66.05"
         style="fill:#f0423e;fill-opacity:1;fill-rule:nonzero;stroke:none"
         id="path246" /><path
         d="m 2619.79,3424.4 c -0.46,-2.58 -8.35,-57.57 -11.98,-99.95 -1.78,-20.76 11.87,-41.53 26.81,-43.05 l 0.66,-0.06 c 14.68,-1 33.22,16.28 33.33,36.77 0.16,37.1 4.51,74.77 4.62,75.35 l -53.44,30.94"
         style="fill:#f07a43;fill-opacity:1;fill-rule:nonzero;stroke:none"
         id="path248" /><path
         d="m 2593.73,3466.4 c 1.49,-47.53 2.17,-58.07 21.46,-78.81 19.31,-20.74 48.18,-31.62 70.56,-33.14 24.16,-1.65 43.82,22.65 50.64,42.25 7.06,20.3 16.98,68.35 13.73,120.5 -1.64,26.44 -31.81,60.43 -65.16,62.71 -33.34,2.29 -94.86,2.61 -91.23,-113.51"
         style="fill:#f6834d;fill-opacity:1;fill-rule:nonzero;stroke:none"
         id="path250" /><path
         d="m 2506.89,3591.15 c -14.79,-8.48 -26.29,-21.78 -33.61,-37.13 8.31,25.23 21.97,42.27 40.77,50.63 31.59,14.02 69.41,-0.2 83.58,-6.6 -31.22,7.83 -63.46,8.74 -90.74,-6.9 z m 243.26,-46.9 c -5,10.57 -21.38,27.33 -35.15,33.47 -26.43,19.15 -59.14,18.42 -85.06,9.93 -8.44,3.26 -17.14,6.22 -25.95,8.69 l 0.61,1.12 c -0.5,0.28 -50.91,27.53 -91.57,9.49 -22.58,-10.03 -38,-31.94 -45.82,-65.1 l 1.22,-0.29 c -5.52,-17.81 -5.71,-37.24 0.84,-54.74 6.55,-17.53 18.71,-32.56 25.16,-50.14 14.05,-38.33 -0.47,-78.56 -37,-96.77 12.74,-10.89 32.77,-7.56 46.84,1.53 14.08,9.09 23.21,29.11 36.08,39.84 21.57,17.99 20.17,71.31 48.19,69.27 l 42.53,28.95 c 34.2,7.53 76.7,17.34 100.15,36.44 9.07,-6.28 16.89,-12.82 19.27,-21.18 4.02,-14.05 9.27,29.12 -0.34,49.49"
         style="fill:#090a0a;fill-opacity:1;fill-rule:nonzero;stroke:none"
         id="path252" /><path
         d="m 2607.76,3464.85 c 5.55,-16.79 2.93,-32.75 -5.86,-35.66 -8.8,-2.91 -20.42,8.34 -25.98,25.12 -5.55,16.78 -2.92,32.75 5.86,35.66 8.8,2.91 20.42,-8.34 25.98,-25.12"
         style="fill:#f6834d;fill-opacity:1;fill-rule:nonzero;stroke:none"
         id="path254" /><path
         d="m 2933.15,3017.87 -140.13,-30.2 v 187.12 l 140.13,30.2 v -187.12"
         style="fill:#e0c9cb;fill-opacity:1;fill-rule:nonzero;stroke:none"
         id="path256" /><path
         d="m 2743.25,3081.65 c 11.26,8.86 26.16,17.71 36.52,18.77 10.34,1.07 -7.22,-12.77 -15.23,-20.08 -8.01,-7.31 -30.76,-6.16 -21.29,1.31"
         style="fill:#f6834d;fill-opacity:1;fill-rule:nonzero;stroke:none"
         id="path258" /><path
         d="m 2758.81,3081.88 c 29.21,4.65 44.01,11.92 57.43,6.85 13.44,-5.09 -5.93,-23.83 -15.85,-26.99 -9.94,-3.17 -44.77,-16.66 -55.16,-9.88 -10.39,6.78 -7.98,26.58 13.58,30.02"
         style="fill:#f6834d;fill-opacity:1;fill-rule:nonzero;stroke:none"
         id="path260" /><path
         d="m 2739.7,3082.8 c -15.28,-2.84 -107.26,0.56 -160.54,-0.8 3.35,32.41 12.7,89.79 22.53,161.45 2.2,16.03 -6.7,50.59 -24.89,70.34 -11.3,12.25 -37.18,9.92 -42.91,-19.84 -3.22,-16.7 -8.29,-39.85 -12.32,-96.81 -6.6,-93.34 -1.04,-133.41 3.52,-151.05 1.04,-3.97 3.59,-7.08 7.04,-9.32 5.12,-5.38 12.4,-9.12 21.29,-9.19 48.08,-0.42 65.84,0.37 128.32,15.83 43.38,10.73 56.87,0.73 65.94,11.4 7.37,8.65 4.77,30.36 -7.98,27.99"
         style="fill:#e0461f;fill-opacity:1;fill-rule:nonzero;stroke:none"
         id="path262" /><path
         d="m 2931.53,3096.01 c 0.04,8.26 0.6,20.97 4.57,32.41 2.27,6.53 9.63,11.26 15.02,5.43 4.71,-5.11 12.78,-25.76 9.33,-35.68 -2.93,-8.4 -10.39,-16.24 -17.69,-19.48 -7.32,-3.24 -11.28,3.83 -11.23,17.32"
         style="fill:#f6834d;fill-opacity:1;fill-rule:nonzero;stroke:none"
         id="path264" /><path
         d="m 3386.76,3170.18 -70.89,62.8 412.47,114.33 -143.69,-348.38 -115.61,103.58 -48.16,-44.26 -34.12,111.93"
         style="fill:#6096d6;fill-opacity:1;fill-rule:nonzero;stroke:none"
         id="path266" /><path
         d="m 3420.88,3058.25 -34.12,111.93 341.58,177.13 -259.3,-244.8 -48.16,-44.26"
         style="fill:#416cbd;fill-opacity:1;fill-rule:nonzero;stroke:none"
         id="path268" /><path
         d="m 1240.67,3926.96 44.4,83.64 -426.379,-37.39 256.609,-275.98 72.01,137.51 60.6,-24.58 -7.24,116.8"
         style="fill:#f25734;fill-opacity:1;fill-rule:nonzero;stroke:none"
         id="path270" /><path
         d="m 1247.91,3810.16 -60.6,24.58 -328.619,138.47 381.979,-46.25 7.24,-116.8"
         style="fill:#c24220;fill-opacity:1;fill-rule:nonzero;stroke:none"
         id="path272" /><path
         d="m 3366.59,3020.17 c -5.77,-3.35 -11.55,-6.7 -17.32,-10.06 -1.79,-1.04 -2.4,-3.34 -1.35,-5.13 1.04,-1.79 3.33,-2.4 5.12,-1.35 5.77,3.35 11.54,6.7 17.31,10.05 1.79,1.04 2.4,3.33 1.37,5.12 -1.04,1.79 -3.34,2.4 -5.13,1.37"
         style="fill:#96b0e1;fill-opacity:1;fill-rule:nonzero;stroke:none"
         id="path274" /><path
         d="m 3252.3,2950.49 c -10.53,-7.06 -20.93,-14.32 -31.14,-21.81 -1.67,-1.22 -2.03,-3.57 -0.81,-5.24 1.23,-1.67 3.57,-2.03 5.24,-0.81 10.12,7.42 20.43,14.62 30.89,21.63 1.72,1.15 2.18,3.48 1.02,5.2 -1.15,1.72 -3.48,2.18 -5.2,1.03 z m -116.89,-97.12 c -8.6,-9.32 -16.84,-19.06 -24.63,-29.18 -1.27,-1.64 -0.96,-4 0.68,-5.26 1.64,-1.27 4,-0.96 5.26,0.68 7.65,9.94 15.75,19.52 24.2,28.67 1.4,1.53 1.31,3.9 -0.22,5.3 -1.52,1.41 -3.89,1.31 -5.29,-0.21 z m -80.34,-129 c -4.37,-12.04 -8.02,-24.31 -10.84,-36.74 -0.46,-2.02 0.8,-4.03 2.82,-4.49 2.02,-0.46 4.03,0.81 4.49,2.83 2.75,12.11 6.31,24.07 10.58,35.84 0.71,1.95 -0.3,4.1 -2.24,4.81 -1.95,0.71 -4.1,-0.3 -4.81,-2.25 z m -11.74,-151 c 2.65,-12.47 6.06,-24.76 9.96,-36.9 0.63,-1.97 2.74,-3.06 4.71,-2.43 1.97,0.64 3.06,2.75 2.43,4.72 -3.84,11.95 -7.18,24 -9.76,36.17 -0.43,2.03 -2.42,3.32 -4.45,2.89 -2.03,-0.43 -3.32,-2.42 -2.89,-4.45 z m 50.64,-143.12 c 4.38,-11.73 8.49,-23.62 12.07,-35.62 0.59,-1.99 2.68,-3.12 4.66,-2.52 1.99,0.59 3.12,2.68 2.53,4.66 -3.64,12.2 -7.81,24.26 -12.23,36.1 -0.73,1.94 -2.89,2.93 -4.83,2.2 -1.94,-0.72 -2.92,-2.88 -2.2,-4.82 z m 22.79,-146.02 c -0.21,-1.31 -0.45,-2.62 -0.69,-3.92 -2.02,-10.65 -5.41,-21.21 -9.97,-31.27 -0.86,-1.89 -0.02,-4.11 1.86,-4.97 1.89,-0.85 4.11,-0.02 4.97,1.87 4.8,10.59 8.37,21.7 10.51,32.97 0.25,1.36 0.5,2.73 0.72,4.1 0.34,2.04 -1.04,3.97 -3.08,4.31 -2.05,0.34 -3.98,-1.04 -4.32,-3.09"
         style="fill:#96b0e1;fill-opacity:1;fill-rule:nonzero;stroke:none"
         id="path276" /><path
         d="m 3026.13,2178.62 c -5.87,-1.26 -11.89,-1.91 -18.04,-1.91 l -1.01,0.01 c -2.07,0.02 -3.76,-1.64 -3.78,-3.71 -0.03,-2.08 1.63,-3.77 3.71,-3.79 l 1.08,-0.01 c 6.68,0 13.24,0.71 19.6,2.07 2.03,0.43 3.32,2.43 2.89,4.45 -0.44,2.03 -2.43,3.32 -4.45,2.89"
         style="fill:#96b0e1;fill-opacity:1;fill-rule:nonzero;stroke:none"
         id="path278" /><path
         d="m 1314.54,3754.32 c 4.11,-5.21 8.21,-10.45 12.28,-15.73 1.27,-1.64 3.62,-1.94 5.26,-0.68 1.64,1.27 1.95,3.62 0.68,5.26 -4.09,5.31 -8.21,10.57 -12.33,15.79 -1.28,1.63 -3.64,1.91 -5.27,0.63 -1.62,-1.29 -1.9,-3.64 -0.62,-5.27"
         style="fill:#96b0e1;fill-opacity:1;fill-rule:nonzero;stroke:none"
         id="path280" /><path
         d="m 1390.45,3640.79 c 5.68,-11.65 10.68,-23.55 14.81,-35.75 0.66,-1.96 2.79,-3.01 4.75,-2.35 1.96,0.67 3.02,2.79 2.35,4.76 -4.24,12.53 -9.36,24.73 -15.17,36.63 -0.91,1.87 -3.16,2.64 -5.02,1.73 -1.86,-0.91 -2.63,-3.15 -1.72,-5.02 z m 21.6,-149.46 c -3.03,-12.58 -7.35,-24.72 -12.95,-36.04 -0.92,-1.86 -0.16,-4.11 1.69,-5.02 1.86,-0.92 4.11,-0.16 5.03,1.69 5.86,11.86 10.37,24.53 13.52,37.61 0.49,2.02 -0.75,4.04 -2.76,4.53 -2.02,0.49 -4.04,-0.76 -4.53,-2.77 z m -98.64,-105.47 c -9.28,-2.04 -18.64,-2.98 -28.06,-2.99 -3.27,0 -6.55,0.12 -9.84,0.34 -2.07,0.14 -3.85,-1.42 -3.99,-3.49 -0.14,-2.06 1.42,-3.85 3.48,-3.99 3.45,-0.24 6.9,-0.36 10.35,-0.36 9.93,0 19.83,1 29.67,3.17 2.03,0.44 3.31,2.44 2.86,4.47 -0.45,2.02 -2.45,3.3 -4.47,2.85 z m -146.48,35.25 c -11.29,6.32 -22.47,13.1 -33.49,20.04 -1.75,1.1 -4.06,0.58 -5.17,-1.17 -1.1,-1.75 -0.58,-4.07 1.17,-5.18 11.09,-6.99 22.38,-13.83 33.82,-20.23 1.81,-1.01 4.09,-0.37 5.11,1.44 1.01,1.81 0.36,4.09 -1.44,5.1 z m -132.94,83.11 c -11.36,6.54 -22.86,12.87 -34.474,18.96 -1.836,0.96 -4.102,0.25 -5.063,-1.58 -0.965,-1.83 -0.258,-4.1 1.578,-5.06 11.529,-6.05 22.939,-12.33 34.219,-18.82 1.8,-1.04 4.09,-0.42 5.12,1.38 1.04,1.79 0.42,4.08 -1.38,5.12 z m -141.97,67.58 c -12.247,4.7 -24.586,9.16 -37.004,13.38 -1.961,0.67 -4.09,-0.38 -4.758,-2.34 -0.664,-1.96 0.383,-4.09 2.344,-4.76 12.328,-4.19 24.574,-8.62 36.73,-13.28 1.934,-0.74 4.102,0.23 4.844,2.16 0.742,1.93 -0.223,4.1 -2.156,4.84 z m -150.754,44.7 c -1.512,0.32 -3.024,0.64 -4.536,0.96 -11.289,2.34 -22.687,4.49 -34.152,6.38 -2.043,0.33 -3.973,-1.05 -4.308,-3.09 -0.336,-2.05 1.046,-3.98 3.089,-4.32 11.356,-1.86 22.649,-3.98 33.844,-6.31 1.5,-0.32 3,-0.63 4.5,-0.95 2.027,-0.43 4.02,0.86 4.449,2.88 0.43,2.03 -0.863,4.02 -2.886,4.45 z m -156.602,15.33 c -13.207,-0.62 -26.351,-1.82 -39.379,-3.7 -2.051,-0.3 -3.472,-2.2 -3.176,-4.25 0.297,-2.05 2.2,-3.47 4.25,-3.18 12.77,1.85 25.668,3.03 38.653,3.64 2.066,0.09 3.668,1.84 3.574,3.91 -0.098,2.07 -1.852,3.67 -3.922,3.58 z m -151.613,-41.08 c -11.539,-6.49 -22.637,-13.7 -33.281,-21.52 -1.668,-1.23 -2.028,-3.57 -0.801,-5.24 1.226,-1.67 3.574,-2.03 5.242,-0.8 10.41,7.65 21.25,14.69 32.516,21.02 1.804,1.01 2.445,3.3 1.429,5.1 -1.015,1.81 -3.301,2.45 -5.105,1.44 z M 316.797,3484.91 c -7.777,-10.61 -15.102,-21.58 -21.973,-32.83 -1.082,-1.77 -0.523,-4.08 1.246,-5.16 1.766,-1.08 4.075,-0.52 5.153,1.25 6.765,11.08 13.976,21.88 21.625,32.31 1.222,1.67 0.863,4.02 -0.809,5.24 -1.672,1.23 -4.016,0.87 -5.242,-0.81 z m -71.742,-140.03 c -4.293,-12.43 -8.219,-24.96 -11.832,-37.58 -0.571,-2 0.582,-4.07 2.574,-4.64 1.992,-0.57 4.066,0.58 4.637,2.57 3.578,12.51 7.464,24.91 11.711,37.2 0.675,1.95 -0.364,4.09 -2.321,4.77 -1.957,0.67 -4.094,-0.37 -4.769,-2.32 z m -37.203,-152.79 c -2.18,-12.91 -4.204,-25.85 -6.122,-38.8 -0.304,-2.05 1.114,-3.96 3.161,-4.26 2.05,-0.3 3.957,1.11 4.257,3.16 1.911,12.91 3.926,25.8 6.098,38.65 0.348,2.04 -1.027,3.98 -3.07,4.32 -2.043,0.35 -3.977,-1.03 -4.324,-3.07 z m -21.598,-155.52 c -1.481,-13.04 -2.738,-26.13 -3.559,-39.23 -0.129,-2.06 1.442,-3.85 3.508,-3.97 2.067,-0.13 3.848,1.44 3.977,3.5 0.808,12.94 2.058,25.9 3.523,38.86 0.235,2.05 -1.246,3.91 -3.305,4.14 -2.054,0.24 -3.914,-1.24 -4.144,-3.3 z m 7.273,-157.04 c 3.934,-12.72 8.942,-25.12 15.067,-36.87 0.957,-1.84 3.222,-2.55 5.058,-1.6 1.836,0.96 2.551,3.23 1.594,5.06 -5.898,11.32 -10.742,23.31 -14.555,35.62 -0.613,1.98 -2.711,3.09 -4.691,2.48 -1.977,-0.61 -3.086,-2.71 -2.473,-4.69 z m 102,-115.94 c 12.508,-4.64 25.446,-7.76 38.661,-9.82 2.042,-0.32 3.96,1.09 4.281,3.13 0.316,2.05 -1.082,3.97 -3.129,4.28 -12.813,2 -25.254,5.01 -37.203,9.44 -1.942,0.72 -4.102,-0.27 -4.821,-2.21 -0.718,-1.95 0.27,-4.1 2.211,-4.82 z m 156.746,-12 c 6.895,0.17 13.766,0.28 20.594,0.28 6.168,0 12.297,-0.09 18.379,-0.31 2.07,-0.08 3.809,1.54 3.883,3.61 0.074,2.07 -1.543,3.81 -3.613,3.88 -6.192,0.23 -12.411,0.32 -18.649,0.32 -6.906,0 -13.836,-0.11 -20.773,-0.28 -2.071,-0.05 -3.711,-1.77 -3.66,-3.84 0.05,-2.07 1.769,-3.71 3.839,-3.66 z m 152.434,-23.32 c 12.066,-4.64 23.887,-9.94 35.391,-15.86 1.84,-0.94 4.101,-0.22 5.05,1.62 0.946,1.85 0.219,4.11 -1.621,5.05 -11.742,6.04 -23.808,11.45 -36.125,16.19 -1.933,0.75 -4.105,-0.22 -4.847,-2.15 -0.746,-1.93 0.218,-4.1 2.152,-4.85 z m 128.539,-84.77 c 7.785,-8.05 15.184,-16.48 22.137,-25.27 1.066,-1.35 2.125,-2.71 3.172,-4.07 1.258,-1.65 3.613,-1.96 5.258,-0.7 1.64,1.26 1.953,3.62 0.695,5.26 -1.07,1.39 -2.153,2.78 -3.242,4.16 -7.114,8.99 -14.672,17.61 -22.629,25.84 -1.442,1.49 -3.817,1.53 -5.305,0.09 -1.488,-1.44 -1.527,-3.82 -0.086,-5.31 z m 79.367,-131.78 c 4.086,-12.27 7.516,-24.76 10.27,-37.4 0.437,-2.03 2.437,-3.31 4.461,-2.87 2.023,0.44 3.304,2.44 2.867,4.46 -2.809,12.9 -6.309,25.65 -10.481,38.18 -0.656,1.96 -2.781,3.02 -4.746,2.37 -1.964,-0.65 -3.023,-2.78 -2.371,-4.74"
         style="fill:#96b0e1;fill-opacity:1;fill-rule:nonzero;stroke:none"
         id="path282" /><path
         d="m 828.734,2357.65 c -0.769,-6.54 -1.738,-13.07 -2.898,-19.57 -0.367,-2.04 0.988,-3.99 3.027,-4.35 2.039,-0.37 3.989,0.99 4.356,3.03 1.187,6.65 2.176,13.32 2.965,20.01 0.242,2.06 -1.227,3.93 -3.286,4.17 -2.054,0.24 -3.918,-1.23 -4.164,-3.29"
         style="fill:#96b0e1;fill-opacity:1;fill-rule:nonzero;stroke:none"
         id="path284" /><path
         d="m 1479.48,796.461 c -0.53,3.211 -0.79,6.398 -0.79,9.559 0,3.089 0.25,6.152 0.72,9.171 0.32,2.051 -1.08,3.969 -3.13,4.278 -2.05,0.32 -3.96,-1.078 -4.28,-3.117 -0.53,-3.403 -0.81,-6.852 -0.81,-10.332 0,-3.571 0.29,-7.168 0.89,-10.79 0.34,-2.039 2.27,-3.421 4.31,-3.078 2.05,0.34 3.43,2.27 3.09,4.309"
         style="fill:#96b0e1;fill-opacity:1;fill-rule:nonzero;stroke:none"
         id="path286" /><path
         d="m 1562.66,882.121 1.67,0.008 c 12.43,0 24.68,-2.238 36.53,-6.238 1.96,-0.661 4.09,0.39 4.75,2.359 0.66,1.961 -0.39,4.09 -2.35,4.75 -12.53,4.23 -25.6,6.629 -38.93,6.629 l -1.79,-0.008 c -2.07,-0.039 -3.72,-1.742 -3.69,-3.82 0.04,-2.071 1.74,-3.719 3.81,-3.68 z m 129.28,-78.832 c 7.93,-10.598 15.35,-21.648 22.6,-32.898 1.12,-1.739 3.44,-2.243 5.18,-1.121 1.74,1.128 2.24,3.449 1.12,5.191 -7.3,11.32 -14.81,22.519 -22.9,33.32 -1.24,1.66 -3.59,2 -5.25,0.758 -1.66,-1.238 -1.99,-3.59 -0.75,-5.25 z m 91.56,-132.18 c 8.63,-10.359 17.6,-20.418 26.9,-30.179 1.42,-1.5 3.8,-1.559 5.3,-0.129 1.5,1.429 1.55,3.801 0.13,5.301 -9.19,9.64 -18.05,19.578 -26.57,29.808 -1.32,1.59 -3.69,1.801 -5.28,0.481 -1.59,-1.332 -1.8,-3.692 -0.48,-5.282 z m 118.56,-109.277 c 11.01,-7.781 22.26,-15.203 33.74,-22.262 1.76,-1.09 4.07,-0.539 5.15,1.231 1.09,1.758 0.54,4.07 -1.23,5.16 -11.34,6.969 -22.46,14.309 -33.33,21.988 -1.69,1.199 -4.03,0.793 -5.22,-0.898 -1.2,-1.692 -0.8,-4.031 0.89,-5.219 z m 142.49,-75.492 c 12.62,-4.719 25.4,-9.031 38.3,-12.91 1.98,-0.598 4.07,0.519 4.67,2.511 0.6,1.981 -0.53,4.071 -2.51,4.668 -12.74,3.832 -25.36,8.09 -37.83,12.762 -1.94,0.719 -4.1,-0.262 -4.83,-2.199 -0.72,-1.942 0.26,-4.102 2.2,-4.832 z m 157.19,-35.899 c 13.43,-1.191 26.9,-1.921 40.37,-2.199 2.07,-0.043 3.78,1.598 3.83,3.668 0.04,2.07 -1.6,3.781 -3.67,3.832 -13.31,0.278 -26.61,1 -39.87,2.18 -2.06,0.18 -3.88,-1.352 -4.06,-3.41 -0.18,-2.063 1.34,-3.883 3.4,-4.071 z m 161.09,7.168 c 13.26,2.352 26.46,5.121 39.55,8.301 2.01,0.492 3.25,2.52 2.76,4.531 -0.49,2.02 -2.52,3.25 -4.53,2.758 -12.94,-3.148 -25.98,-5.89 -39.09,-8.199 -2.04,-0.359 -3.4,-2.309 -3.04,-4.34 0.36,-2.039 2.31,-3.41 4.35,-3.051 z m 153.91,48.082 c 12.24,5.641 24.3,11.668 36.14,18.079 1.83,0.992 2.5,3.269 1.52,5.089 -0.99,1.821 -3.27,2.493 -5.09,1.512 -11.7,-6.34 -23.61,-12.301 -35.71,-17.859 -1.88,-0.871 -2.7,-3.102 -1.84,-4.981 0.87,-1.883 3.09,-2.699 4.98,-1.84 z m 136.31,86.141 c 10.34,8.668 20.38,17.637 30.16,26.859 1.51,1.418 1.58,3.789 0.16,5.301 -1.42,1.508 -3.79,1.578 -5.3,0.156 -9.69,-9.128 -19.62,-17.996 -29.84,-26.566 -1.59,-1.332 -1.8,-3.703 -0.46,-5.293 1.33,-1.578 3.69,-1.789 5.28,-0.457 z m 112.77,115.109 c 8.7,10.2 17.29,20.5 25.84,30.84 1.32,1.598 1.1,3.961 -0.5,5.278 -1.6,1.32 -3.96,1.101 -5.28,-0.5 -8.53,-10.317 -17.11,-20.59 -25.77,-30.758 -1.34,-1.571 -1.15,-3.942 0.42,-5.281 1.58,-1.34 3.95,-1.161 5.29,0.421 z m 102.71,123.61 c 8.71,10.148 17.52,20.199 26.48,30.09 1.39,1.531 1.27,3.91 -0.26,5.3 -1.54,1.391 -3.91,1.27 -5.3,-0.269 -9.01,-9.953 -17.87,-20.051 -26.61,-30.242 -1.35,-1.571 -1.17,-3.938 0.41,-5.289 1.57,-1.352 3.94,-1.172 5.28,0.41 z m 112.93,113.051 c 10.38,8.328 21.04,16.328 31.96,23.937 1.7,1.191 2.11,3.52 0.93,5.223 -1.19,1.699 -3.52,2.117 -5.22,0.929 -11.06,-7.711 -21.86,-15.812 -32.36,-24.242 -1.62,-1.301 -1.87,-3.66 -0.58,-5.269 1.3,-1.621 3.66,-1.879 5.27,-0.578 z m 137.23,80.068 c 12.52,4.64 25.19,8.61 37.95,11.81 2.01,0.5 3.23,2.54 2.73,4.55 -0.51,2.01 -2.54,3.23 -4.55,2.72 -13.05,-3.27 -25.98,-7.32 -38.74,-12.05 -1.94,-0.72 -2.93,-2.88 -2.21,-4.82 0.72,-1.94 2.88,-2.93 4.82,-2.21"
         style="fill:#96b0e1;fill-opacity:1;fill-rule:nonzero;stroke:none"
         id="path288" /><path
         d="m 3274.97,1041.2 c 6.44,-1.09 12.87,-2.42 19.3,-4.02 2.01,-0.5 4.04,0.72 4.54,2.73 0.5,2.01 -0.73,4.05 -2.73,4.55 -6.62,1.64 -13.24,3.02 -19.87,4.14 -2.04,0.34 -3.97,-1.03 -4.32,-3.08 -0.34,-2.04 1.03,-3.97 3.08,-4.32"
         style="fill:#96b0e1;fill-opacity:1;fill-rule:nonzero;stroke:none"
         id="path290" /><path
         d="m 2502.53,4016.61 c 5.57,1.27 11.1,1.87 16.56,1.87 7.17,0 14.24,-1.03 21.16,-2.94 1.99,-0.56 4.06,0.61 4.61,2.61 0.55,1.99 -0.62,4.06 -2.61,4.61 v 0 c -7.52,2.08 -15.27,3.22 -23.16,3.22 v 0 c -6.01,0 -12.1,-0.66 -18.23,-2.05 -2.02,-0.46 -3.28,-2.47 -2.82,-4.49 0.46,-2.02 2.47,-3.28 4.49,-2.83 z m 121.91,-77.87 0.62,-1.19 v 0 c 5.81,-11.25 10.94,-22.97 15.86,-34.87 0.8,-1.91 2.99,-2.82 4.9,-2.03 1.92,0.8 2.83,2.99 2.03,4.9 -4.96,11.99 -10.17,23.9 -16.12,35.44 v 0 l -0.65,1.24 c -0.96,1.83 -3.23,2.54 -5.06,1.57 -1.84,-0.96 -2.54,-3.23 -1.58,-5.06 z m 71.11,-143.58 c 0.75,-0.91 1.51,-1.81 2.29,-2.71 8.3,-9.63 17.43,-18.06 27.24,-25.41 1.65,-1.24 4,-0.91 5.25,0.75 1.24,1.66 0.9,4.01 -0.75,5.25 -9.4,7.05 -18.12,15.1 -26.06,24.31 l -2.19,2.59 c -1.32,1.6 -3.68,1.82 -5.28,0.51 -1.59,-1.32 -1.82,-3.69 -0.5,-5.29 z m 142.18,-71.14 c 13.19,-2.03 26.6,-3.42 40.07,-4.34 2.07,-0.13 3.86,1.43 4,3.49 0.14,2.07 -1.42,3.86 -3.49,4 -13.29,0.9 -26.49,2.27 -39.45,4.26 -2.04,0.31 -3.96,-1.09 -4.27,-3.14 -0.32,-2.05 1.09,-3.96 3.14,-4.27 z m 160.31,-4.84 c 1.15,0 2.31,0 3.46,0 12.11,0 24.26,-0.2 36.36,-0.73 2.07,-0.09 3.82,1.52 3.91,3.59 0.09,2.07 -1.51,3.82 -3.58,3.91 -12.24,0.53 -24.5,0.73 -36.69,0.73 -1.16,0 -2.32,0 -3.49,-0.01 -2.07,0 -3.74,-1.69 -3.73,-3.76 0,-2.07 1.69,-3.74 3.76,-3.73 z m 156.07,-22.12 c 12.23,-4.87 23.9,-10.76 34.87,-17.87 1.74,-1.13 4.06,-0.64 5.19,1.1 1.12,1.74 0.63,4.06 -1.11,5.19 -11.42,7.4 -23.54,13.52 -36.18,18.55 -1.92,0.76 -4.1,-0.17 -4.87,-2.1 -0.76,-1.92 0.17,-4.11 2.1,-4.87"
         style="fill:#96b0e1;fill-opacity:1;fill-rule:nonzero;stroke:none"
         id="path292" /><path
         d="m 1743.9,3144.34 -18.85,7.98 101.22,238.88 18.84,-7.99 -101.21,-238.87"
         style="fill:#2e2c2d;fill-opacity:1;fill-rule:nonzero;stroke:none"
         id="path294" /><path
         d="m 1636.31,2913.19 v 0 c -26.5,11.23 -38.88,41.82 -27.65,68.32 l 93.98,221.82 c 11.23,26.5 41.82,38.88 68.32,27.65 26.51,-11.23 38.89,-41.82 27.66,-68.32 l -93.99,-221.82 c -11.23,-26.5 -41.81,-38.88 -68.32,-27.65"
         style="fill:#6096d6;fill-opacity:1;fill-rule:nonzero;stroke:none"
         id="path296" /><path
         d="m 2179.48,3518.27 -32.23,13.66 c -18.56,-43.77 -48.9,-78.55 -85.9,-102.61 -36.99,-24.04 -80.58,-37.17 -125.13,-37.16 -29.78,0 -59.99,5.82 -89.25,18.22 -43.76,18.55 -78.55,48.9 -102.61,85.89 -24.04,37 -37.17,80.59 -37.16,125.14 0,29.78 5.83,59.99 18.22,89.25 18.56,43.76 48.9,78.55 85.9,102.61 36.99,24.04 80.58,37.17 125.13,37.16 29.78,0 59.99,-5.83 89.25,-18.22 43.76,-18.56 78.55,-48.9 102.61,-85.9 24.04,-36.99 37.17,-80.58 37.16,-125.13 0,-29.78 -5.83,-59.99 -18.22,-89.25 v 0 l 32.23,-13.66 32.22,-13.65 c 16.11,37.99 23.78,77.63 23.77,116.56 -0.01,58.29 -17.11,115.01 -48.46,163.27 -31.33,48.26 -77.11,88.12 -134,112.21 -37.99,16.11 -77.63,23.78 -116.56,23.77 -58.29,-0.01 -115.01,-17.11 -163.27,-48.46 -48.26,-31.33 -88.12,-77.11 -112.21,-134 -16.11,-37.99 -23.78,-77.63 -23.77,-116.56 0.01,-58.29 17.11,-115.01 48.46,-163.27 31.33,-48.26 77.11,-88.13 134,-112.22 37.99,-16.1 77.63,-23.77 116.56,-23.76 58.29,0 115.01,17.1 163.27,48.46 48.26,31.33 88.13,77.1 112.21,134 v 0 l -32.22,13.65"
         style="fill:#4378c5;fill-opacity:1;fill-rule:nonzero;stroke:none"
         id="path298" /><path
         d="m 2145.39,3537.75 c -48.58,-114.65 -180.91,-168.21 -295.56,-119.64 -114.65,48.58 -168.22,180.91 -119.64,295.56 48.58,114.65 180.9,168.22 295.56,119.64 114.65,-48.58 168.21,-180.9 119.64,-295.56"
         style="fill:#bdeafb;fill-opacity:1;fill-rule:nonzero;stroke:none"
         id="path300" /><path
         d="m 1906.13,3650.42 c -49.04,0 -88.8,32.84 -88.8,73.35 0,40.51 39.76,73.35 88.8,73.35 49.04,0 88.8,-32.84 88.8,-73.35 0,-40.51 -39.76,-73.35 -88.8,-73.35"
         style="fill:#d3f1fc;fill-opacity:1;fill-rule:nonzero;stroke:none"
         id="path302" /><path
         d="m 2251.12,117.379 c -3.95,-4.039 -7.34,-8.508 -10.13,-13.27 l -4.25,2.2 c -0.6,2.722 -3.19,4.593 -6.01,4.25 -3.03,-0.348 -5.19,-3.079 -4.84,-6.11 0.36,-3.027 3.1,-5.1873 6.13,-4.8279 l 1.67,0.4689 4.13,-2.1291 c -2.3,-5.0625 -3.96,-10.4023 -4.93,-15.9296 l 6.82,-1.1993 c 2.1,11.918 7.76,22.887 16.37,31.719 l -4.96,4.828"
         style="fill:#101c24;fill-opacity:1;fill-rule:nonzero;stroke:none"
         id="path304" /><path
         d="m 2301.25,138.422 c -1.56,0 -3.11,-0.063 -4.65,-0.16 l -0.68,5.718 c 1.72,1.36 2.71,3.551 2.43,5.891 -0.42,3.578 -3.67,6.149 -7.26,5.731 -3.6,-0.422 -6.16,-3.672 -5.74,-7.262 0.27,-2.328 1.73,-4.219 3.7,-5.149 l 0.67,-5.699 c -6.52,-1.07 -12.82,-3.043 -18.82,-5.91 l 2.99,-6.242 c 8.54,4.082 17.74,6.152 27.36,6.152 4.54,0 9.08,-0.492 13.48,-1.441 l 1.47,6.758 c -4.89,1.07 -9.92,1.613 -14.95,1.613"
         style="fill:#101c24;fill-opacity:1;fill-rule:nonzero;stroke:none"
         id="path306" /><path
         d="m 2361.57,115.141 c 3.02,0.371 5.17,3.121 4.8,6.148 -0.37,3.012 -3.11,5.16 -6.14,4.793 -2.82,-0.34 -4.89,-2.773 -4.84,-5.562 l -3.8,-3.321 c -3.82,3.942 -8.13,7.43 -12.86,10.41 l -3.7,-5.859 c 10.37,-6.531 18.47,-15.77 23.42,-26.7109 l 6.31,2.8515 c -2.28,5.0584 -5.19,9.7894 -8.6,14.1094 l 3.67,3.211 1.74,-0.07"
         style="fill:#101c24;fill-opacity:1;fill-rule:nonzero;stroke:none"
         id="path308" /><path
         d="m 2296.25,45.1523 c -3.52,-0.2109 -7.08,-0.3203 -10.57,-0.3203 -8.04,0 -15.83,0.5586 -22.64,1.6368 -3.57,0.5703 -7.73,1.4218 -11.61,2.6718 9.56,-17 28.05,-28.5508 49.23,-28.5508 26.08,0 48.08,17.5 54.35,41.1524 -6.23,-4.1133 -13.75,-7.543 -22.46,-10.2617 -10.77,-3.3594 -23.34,-5.5508 -36.3,-6.3282"
         style="fill:#101c24;fill-opacity:1;fill-rule:nonzero;stroke:none"
         id="path310" /><path
         d="m 2324.81,73.3398 c -6.86,0 -12.43,5.5704 -12.43,12.4297 0,6.8516 5.57,12.4297 12.43,12.4297 6.84,0 12.42,-5.5781 12.42,-12.4297 0,-6.8593 -5.58,-12.4297 -12.42,-12.4297 z m -43.28,-8.289 c -9.32,0 -16.9,7.5703 -16.9,16.8906 0,9.3203 7.58,16.8984 16.9,16.8984 9.31,0 16.89,-7.5781 16.89,-16.8984 0,-9.3203 -7.58,-16.8906 -16.89,-16.8906 z m 19.72,59.5082 c -30.62,0 -55.53,-24.36 -55.53,-54.2973 0,-3.8906 0.42,-7.75 1.25,-11.5195 6.15,-4.4102 24.71,-8.1328 48.85,-6.6719 26.3,1.582 48.38,8.7383 60.95,19.711 -0.05,1.7773 -0.18,3.5703 -0.41,5.3203 -3.47,27.0584 -27.17,47.4574 -55.11,47.4574"
         style="fill:#101c24;fill-opacity:1;fill-rule:nonzero;stroke:none"
         id="path312" /><path
         d="m 2447.46,107.512 c -2.7,1.047 -7.37,2.82 -12.63,2.16 -5.04,-0.621 -7.72,-3.113 -7.72,-9.192 v -7.9097 h 20.37 V 76.8711 h -20.37 V 27.0508 h -17.64 v 49.8203 h -12.24 v 15.6992 h 12.24 v 8.1097 c 0,15.34 8.18,25.422 23.46,25.422 5.87,0 10.57,-1.11 14.53,-2.813 v -15.777"
         style="fill:#101c24;fill-opacity:1;fill-rule:nonzero;stroke:none"
         id="path314" /><path
         d="m 2490.41,77.0703 c -1.61,0.2617 -3.26,0.4219 -4.8,0.4219 -8.18,0 -13.8,-5.0117 -13.8,-14.75 V 27.0508 h -17.65 v 65.5195 h 17.11 v -7.1719 c 4.13,6.1524 10.41,8.9219 18.46,8.9219 3.79,0 7.75,-1.1601 10,-3.0703 l -9.32,-14.1797"
         style="fill:#101c24;fill-opacity:1;fill-rule:nonzero;stroke:none"
         id="path316" /><path
         d="m 2513.74,65.9922 h 29.01 c -1.62,8.3789 -6.7,13.1172 -14.27,13.1172 -8.32,0 -13.18,-5 -14.74,-13.1172 z m 46.72,-6.082 c 0,-2.0313 -0.13,-4.461 -0.34,-5.961 h -46.45 c 1.89,-9.457 8.52,-13.5781 16.83,-13.5781 5.69,0 11.84,2.2891 16.57,6.2773 l 10.35,-11.3593 c -7.43,-6.8282 -16.91,-9.9375 -27.92,-9.9375 -20.09,0 -34.02,13.6601 -34.02,34.289 0,20.6211 13.53,34.6797 33.14,34.6797 18.86,0 31.78,-13.9883 31.84,-34.4101"
         style="fill:#101c24;fill-opacity:1;fill-rule:nonzero;stroke:none"
         id="path318" /><path
         d="m 2583.66,65.9922 h 29 c -1.62,8.3789 -6.69,13.1172 -14.27,13.1172 -8.31,0 -13.18,-5 -14.73,-13.1172 z m 46.72,-6.082 c 0,-2.0313 -0.14,-4.461 -0.34,-5.961 h -46.45 c 1.89,-9.457 8.51,-13.5781 16.83,-13.5781 5.69,0 11.84,2.2891 16.57,6.2773 l 10.35,-11.3593 c -7.44,-6.8282 -16.91,-9.9375 -27.93,-9.9375 -20.08,0 -34.01,13.6601 -34.01,34.289 0,20.6211 13.52,34.6797 33.13,34.6797 18.87,0 31.78,-13.9883 31.85,-34.4101"
         style="fill:#101c24;fill-opacity:1;fill-rule:nonzero;stroke:none"
         id="path320" /><path
         d="m 2654.76,59.8398 c 0,-10.3476 6.83,-18.0585 16.84,-18.0585 10.41,0 16.9,8.0507 16.9,18.0585 0,10 -6.49,18.0508 -16.9,18.0508 -10.01,0 -16.84,-7.7109 -16.84,-18.0508 z m 51.87,0 c 0,-19.6796 -13.67,-34.4882 -31.72,-34.4882 -8.79,0 -15.01,3.457 -19.27,8.5195 V 0 h -17.58 v 92.5703 h 17.24 V 85.332 c 4.26,5.3399 10.54,8.9883 19.54,8.9883 18.12,0 31.79,-14.8008 31.79,-34.4805"
         style="fill:#101c24;fill-opacity:1;fill-rule:nonzero;stroke:none"
         id="path322" /><path
         d="m 2732.61,27.0508 h -17.65 v 65.5195 h 17.65 z M 2734.98,114 c 0,-6.359 -4.95,-11.23 -11.29,-11.23 -6.36,0 -11.23,4.871 -11.23,11.23 0,6.359 4.87,11.359 11.23,11.359 6.34,0 11.29,-5 11.29,-11.359"
         style="fill:#101c24;fill-opacity:1;fill-rule:nonzero;stroke:none"
         id="path324" /><path
         d="m 2762.06,69.2422 24.67,23.3281 h 21.64 l -31.77,-30.8281 31.98,-34.6914 h -21.71 l -24.81,26.5 v -26.5 h -17.65 V 124.41 h 17.65 V 69.2422"
         style="fill:#101c24;fill-opacity:1;fill-rule:nonzero;stroke:none"
         id="path326" /><path
         d="m 1559.63,45.1602 v 29.3086 c -3.61,5.621 -11.37,10.4414 -19.41,10.4414 -12.97,0 -20.74,-10.6993 -20.74,-25.0196 0,-14.3203 7.77,-24.8906 20.74,-24.8906 8.04,0 15.8,4.5508 19.41,10.1602 z m 0,-17.5313 v 9.6406 c -4.82,-6.5586 -12.71,-11.2382 -21.81,-11.2382 -16.86,0 -28.77,12.8398 -28.77,33.8593 0,20.6094 11.77,33.9805 28.77,33.9805 8.7,0 16.59,-4.2695 21.81,-11.3711 v 34.391 h 10.04 V 27.6289 h -10.04"
         style="fill:#101c24;fill-opacity:1;fill-rule:nonzero;stroke:none"
         id="path328" /><path
         d="m 1614.36,85.582 c -13.78,0 -20.61,-11.6406 -21.14,-21.5429 h 42.42 c -0.14,9.6328 -6.56,21.5429 -21.28,21.5429 z m -31.71,-25.5625 c 0,18.7422 13.37,33.8516 31.84,33.8516 19.54,0 31.05,-15.25 31.05,-34.6523 v -2.5391 h -52.32 c 0.8,-12.1797 9.37,-22.3594 23.28,-22.3594 7.36,0 14.86,2.9492 19.94,8.1719 l 4.82,-6.5625 c -6.43,-6.418 -15.12,-9.8984 -25.69,-9.8984 -19.14,0 -32.92,13.7773 -32.92,33.9882"
         style="fill:#101c24;fill-opacity:1;fill-rule:nonzero;stroke:none"
         id="path330" /><path
         d="m 1652.76,36.1992 5.22,7.2227 c 4.29,-4.9531 12.45,-9.2227 21.28,-9.2227 9.9,0 15.26,4.6719 15.26,11.1016 0,15.6484 -40.02,6.0312 -40.02,29.9805 0,10.0273 8.7,18.5898 24.09,18.5898 10.98,0 18.73,-4.1406 23.95,-9.3594 l -4.68,-6.9609 c -3.88,4.6797 -10.97,8.1601 -19.27,8.1601 -8.83,0 -14.32,-4.4101 -14.32,-10.1718 0,-14.1797 40.01,-4.8086 40.01,-29.9688 0,-10.8515 -8.69,-19.539 -25.42,-19.539 -10.57,0 -19.54,3.2187 -26.1,10.1679"
         style="fill:#101c24;fill-opacity:1;fill-rule:nonzero;stroke:none"
         id="path332" /><path
         d="m 1717.27,27.6289 v 64.6406 h 10.03 V 27.6289 Z m -1.74,80.5621 c 0,3.75 3.07,6.829 6.69,6.829 3.74,0 6.82,-3.079 6.82,-6.829 0,-3.742 -3.08,-6.691 -6.82,-6.691 -3.62,0 -6.69,2.949 -6.69,6.691"
         style="fill:#101c24;fill-opacity:1;fill-rule:nonzero;stroke:none"
         id="path334" /><path
         d="m 1790.73,46.2422 v 28.2266 c -3.48,5.621 -11.24,10.4414 -19.28,10.4414 -12.97,0 -20.73,-10.3008 -20.73,-24.6211 0,-14.1875 7.76,-24.6172 20.73,-24.6172 8.04,0 15.8,4.9375 19.28,10.5703 z m -46.84,-35.2031 5.08,7.5 c 5.36,-6.418 11.78,-8.83988 21.02,-8.83988 10.7,0 20.74,5.22268 20.74,19.41018 v 9.2422 c -4.69,-6.5703 -12.58,-11.5196 -21.68,-11.5196 -16.86,0 -28.77,12.5782 -28.77,33.4571 0,20.7422 11.77,33.582 28.77,33.582 8.69,0 16.46,-4.2695 21.68,-11.3711 v 9.7695 h 10.03 V 29.5117 c 0,-21.41014 -14.98,-28.10154 -30.77,-28.10154 -10.98,0 -18.47,2.14062 -26.1,9.62894"
         style="fill:#101c24;fill-opacity:1;fill-rule:nonzero;stroke:none"
         id="path336" /><path
         d="m 1861.11,27.6289 v 42.3008 c 0,11.3711 -5.75,14.9805 -14.45,14.9805 -7.9,0 -15.39,-4.8204 -19.14,-10.0391 V 27.6289 h -10.03 v 64.6406 h 10.03 v -9.3593 c 4.55,5.3515 13.38,10.9609 23.02,10.9609 13.52,0 20.61,-6.8125 20.61,-20.8711 V 27.6289 h -10.04"
         style="fill:#101c24;fill-opacity:1;fill-rule:nonzero;stroke:none"
         id="path338" /><path
         d="m 1915.84,85.582 c -13.78,0 -20.61,-11.6406 -21.14,-21.5429 h 42.42 c -0.13,9.6328 -6.56,21.5429 -21.28,21.5429 z m -31.71,-25.5625 c 0,18.7422 13.38,33.8516 31.85,33.8516 19.53,0 31.04,-15.25 31.04,-34.6523 v -2.5391 h -52.32 c 0.8,-12.1797 9.37,-22.3594 23.28,-22.3594 7.37,0 14.86,2.9492 19.94,8.1719 l 4.82,-6.5625 c -6.42,-6.418 -15.12,-9.8984 -25.69,-9.8984 -19.14,0 -32.92,13.7773 -32.92,33.9882"
         style="fill:#101c24;fill-opacity:1;fill-rule:nonzero;stroke:none"
         id="path340" /><path
         d="m 2006.7,45.1602 v 29.3086 c -3.61,5.621 -11.37,10.4414 -19.4,10.4414 -12.98,0 -20.74,-10.6993 -20.74,-25.0196 0,-14.3203 7.76,-24.8906 20.74,-24.8906 8.03,0 15.79,4.5508 19.4,10.1602 z m 0,-17.5313 v 9.6406 c -4.81,-6.5586 -12.71,-11.2382 -21.81,-11.2382 -16.86,0 -28.77,12.8398 -28.77,33.8593 0,20.6094 11.78,33.9805 28.77,33.9805 8.7,0 16.6,-4.2695 21.81,-11.3711 v 34.391 h 10.04 V 27.6289 h -10.04"
         style="fill:#101c24;fill-opacity:1;fill-rule:nonzero;stroke:none"
         id="path342" /><path
         d="m 2093.95,35 c 13.12,0 20.88,10.5703 20.88,24.8906 0,14.3203 -7.76,25.0196 -20.88,25.0196 -7.9,0 -15.79,-4.8204 -19.27,-10.4414 V 45.1602 C 2078.16,39.5508 2086.05,35 2093.95,35 Z m -29.31,-7.3711 v 89.2621 h 10.04 V 82.5 c 5.22,7.1016 12.98,11.3711 21.81,11.3711 16.86,0 28.77,-13.3711 28.77,-33.9805 0,-21.0195 -11.91,-33.8593 -28.77,-33.8593 -9.1,0 -16.99,4.6796 -21.81,11.2382 v -9.6406 h -10.04"
         style="fill:#101c24;fill-opacity:1;fill-rule:nonzero;stroke:none"
         id="path344" /><path
         d="m 2136.24,11.4414 c 1.46,-0.6601 3.88,-1.0625 5.48,-1.0625 4.42,0 7.36,1.4609 9.64,6.8125 l 4.28,9.7774 -27.03,65.3007 h 10.84 l 21.54,-52.9882 21.42,52.9882 h 10.96 l -32.38,-77.75 c -3.88,-9.36716 -10.44,-12.98044 -19,-13.10934 -2.14,0 -5.49,0.39843 -7.36,0.9414 l 1.61,9.08984"
         style="fill:#101c24;fill-opacity:1;fill-rule:nonzero;stroke:none"
         id="path346" /></g></g></svg>
